<?xml version="1.0" encoding="UTF-8" standalone="no"?>
<!-- Created with Inkscape (http://www.inkscape.org/) -->

<svg
   width="1280"
   height="320"
   viewBox="0 0 338.66663 84.666655"
   version="1.1"
   id="svg1"
   xml:space="preserve"
   inkscape:version="1.4.3 (0d15f75, 2025-12-25)"
   sodipodi:docname="logo.svg"
   inkscape:export-filename="hero-logo.png"
   inkscape:export-xdpi="96"
   inkscape:export-ydpi="96"
   xmlns:inkscape="http://www.inkscape.org/namespaces/inkscape"
   xmlns:sodipodi="http://sodipodi.sourceforge.net/DTD/sodipodi-0.dtd"
   xmlns:xlink="http://www.w3.org/1999/xlink"
   xmlns="http://www.w3.org/2000/svg"
   xmlns:svg="http://www.w3.org/2000/svg"><sodipodi:namedview
     id="namedview1"
     pagecolor="#505050"
     bordercolor="#ffffff"
     borderopacity="1"
     inkscape:showpageshadow="0"
     inkscape:pageopacity="0"
     inkscape:pagecheckerboard="1"
     inkscape:deskcolor="#505050"
     inkscape:document-units="px"
     inkscape:zoom="1.2131989"
     inkscape:cx="1907.3542"
     inkscape:cy="196.17558"
     inkscape:window-width="3840"
     inkscape:window-height="2050"
     inkscape:window-x="3828"
     inkscape:window-y="-12"
     inkscape:window-maximized="1"
     inkscape:current-layer="layer6"><inkscape:page
       x="0"
       y="0"
       width="338.66663"
       height="84.666656"
       id="page45"
       margin="5.291666"
       bleed="0"
       inkscape:export-filename="read_me_banner.svg"
       inkscape:export-xdpi="96"
       inkscape:export-ydpi="96" /></sodipodi:namedview><defs
     id="defs1"><linearGradient
       id="linearGradient43"
       inkscape:collect="always"
       inkscape:label="main_bg"><stop
         style="stop-color:#f43f5e;stop-opacity:1"
         offset="0.44999999"
         id="stop42" /><stop
         style="stop-color:#0ea5e9;stop-opacity:1"
         offset="0.55000001"
         id="stop43" /></linearGradient><linearGradient
       id="linearGradient38"
       inkscape:collect="always"
       inkscape:label="logo_bg"><stop
         style="stop-color:#0ea5e9;stop-opacity:1"
         offset="0"
         id="stop38" /><stop
         style="stop-color:#f43f5e;stop-opacity:1"
         offset="1"
         id="stop37" /></linearGradient><linearGradient
       id="linearGradient28"
       inkscape:collect="always"
       inkscape:label="main_bg"><stop
         style="stop-color:#f43f5e;stop-opacity:1"
         offset="0.30000001"
         id="stop28" /><stop
         style="stop-color:#0ea5e9;stop-opacity:1"
         offset="0.69999999"
         id="stop29" /></linearGradient><linearGradient
       id="swatch9"
       inkscape:swatch="solid"><stop
         style="stop-color:#f43f5e;stop-opacity:1;"
         offset="0"
         id="stop9" /></linearGradient><linearGradient
       id="swatch2"
       inkscape:swatch="solid"><stop
         style="stop-color:#06b6d4;stop-opacity:1;"
         offset="0"
         id="stop2" /></linearGradient><radialGradient
       inkscape:collect="always"
       xlink:href="#linearGradient38"
       id="radialGradient3"
       cx="160.28989"
       cy="-79.183594"
       fx="160.28989"
       fy="-79.183594"
       r="32.740505"
       gradientTransform="translate(0,4.6129624e-5)"
       gradientUnits="userSpaceOnUse"
       spreadMethod="pad" /><inkscape:path-effect
       effect="bspline"
       id="path-effect11-4"
       is_visible="true"
       lpeversion="1.3"
       weight="33.333333"
       steps="2"
       helper_size="0"
       apply_no_weight="true"
       apply_with_weight="true"
       only_selected="false"
       uniform="false" /><inkscape:path-effect
       effect="bspline"
       id="path-effect11-4-8"
       is_visible="true"
       lpeversion="1.3"
       weight="33.333333"
       steps="2"
       helper_size="0"
       apply_no_weight="true"
       apply_with_weight="true"
       only_selected="false"
       uniform="false" /><inkscape:path-effect
       effect="bspline"
       id="path-effect11-4-9"
       is_visible="true"
       lpeversion="1.3"
       weight="33.333333"
       steps="2"
       helper_size="0"
       apply_no_weight="true"
       apply_with_weight="true"
       only_selected="false"
       uniform="false" /><inkscape:path-effect
       effect="bspline"
       id="path-effect11-4-50"
       is_visible="true"
       lpeversion="1.3"
       weight="33.333333"
       steps="2"
       helper_size="0"
       apply_no_weight="true"
       apply_with_weight="true"
       only_selected="false"
       uniform="false" /><inkscape:path-effect
       effect="bspline"
       id="path-effect11-4-4"
       is_visible="true"
       lpeversion="1.3"
       weight="33.333333"
       steps="2"
       helper_size="0"
       apply_no_weight="true"
       apply_with_weight="true"
       only_selected="false"
       uniform="false" /><inkscape:path-effect
       effect="bspline"
       id="path-effect11-4-0"
       is_visible="true"
       lpeversion="1.3"
       weight="33.333333"
       steps="2"
       helper_size="0"
       apply_no_weight="true"
       apply_with_weight="true"
       only_selected="false"
       uniform="false" /><inkscape:path-effect
       effect="bspline"
       id="path-effect11-4-93"
       is_visible="true"
       lpeversion="1.3"
       weight="33.333333"
       steps="2"
       helper_size="0"
       apply_no_weight="true"
       apply_with_weight="true"
       only_selected="false"
       uniform="false" /><linearGradient
       inkscape:collect="always"
       xlink:href="#linearGradient28"
       id="linearGradient29"
       x1="-1.8713023e-05"
       y1="84.666664"
       x2="338.66653"
       y2="84.666664"
       gradientUnits="userSpaceOnUse"
       gradientTransform="translate(380.99663,-267.09114)" /><linearGradient
       inkscape:collect="always"
       xlink:href="#linearGradient43"
       id="linearGradient32"
       x1="1593.0194"
       y1="255.41068"
       x2="471.69003"
       y2="255.41069"
       gradientUnits="userSpaceOnUse" /><linearGradient
       inkscape:collect="always"
       xlink:href="#linearGradient43"
       id="linearGradient1"
       gradientUnits="userSpaceOnUse"
       x1="1593.0194"
       y1="255.41068"
       x2="471.69003"
       y2="255.41069" /></defs><g
     inkscape:label="MASTER"
     inkscape:groupmode="layer"
     id="layer1"
     transform="translate(-348.66662)"><rect
       style="fill:url(#linearGradient29);fill-rule:nonzero;stroke:none;stroke-width:0;stroke-linecap:butt;stroke-linejoin:miter;stroke-miterlimit:4;stroke-dasharray:none;stroke-opacity:1;paint-order:stroke fill markers"
       id="rect25"
       width="338.66663"
       height="169.33331"
       x="380.99661"
       y="-267.09113"
       inkscape:label="gradient_bg" /><g
       inkscape:groupmode="layer"
       id="layer4"
       inkscape:label="text"
       transform="translate(3.3273827e-6,-51.385815)"><g
         id="text1"
         style="font-weight:bold;font-size:256px;line-height:1;font-family:'Segoe UI';-inkscape-font-specification:'Segoe UI Bold';text-align:center;letter-spacing:0px;text-anchor:middle;white-space:pre;fill:none;stroke:url(#linearGradient32);stroke-width:9.83084"
         inkscape:label="STOCHAS"
         transform="matrix(0.26913593,0,0,0.26913593,-77.289811,-170.53345)"
         aria-label="STOCHAS&#10;1q"><path
           style="font-weight:normal;font-family:'Franklin Gothic Heavy';-inkscape-font-specification:'Franklin Gothic Heavy, ';word-spacing:0px;fill-opacity:0;stroke:url(#linearGradient1)"
           d="m 476.60547,291.34817 48.625,-8.75 q 6.125,20.625 31.5,20.625 19.75,0 19.75,-10.5 0,-5.5 -4.625,-8.5 -4.5,-3.125 -16.25,-5.5 -44.875,-8.625 -57.625,-22.5 -12.75,-13.875 -12.75,-32.625 0,-24.125 18.25,-40.125 18.375,-16 52.75,-16 52.125,0 68.875,41.875 l -43.375,13.125 q -6.75,-17.125 -27.375,-17.125 -17.125,0 -17.125,10.625 0,4.75 3.875,7.375 3.875,2.625 15,5 30.625,6.5 43.5,11.5 12.875,5 21.5,17.125 8.625,12 8.625,28.375 0,25.875 -21,42 -21,16 -55.125,16 -62.375,0 -77,-52 z m 245.25,-80.375 v 129.75 h -49.625 v -129.75 h -35.375 v -40.875 h 120.375 v 40.875 z m 124,132.375 q -36,0 -58.75,-23.875 -22.625,-23.875 -22.625,-63.875 0,-38.25 21.625,-63.125 21.75,-25 60.25,-25 35.625,0 58,23.5 22.5,23.5 22.5,62.75 0,40.625 -22.625,65.125 -22.625,24.5 -58.375,24.5 z m -0.25,-38.75 q 13.25,0 19,-11.5 5.875,-11.625 5.875,-42.375 0,-44.5 -23.875,-44.5 -25.75,0 -25.75,50.75 0,47.625 24.75,47.625 z m 197.25003,-29 47.875,2.875 q -3.375,31.375 -23.25,48.125 -19.75,16.75 -48.625,16.75 -34.75003,0 -56.12503,-23 -21.375,-23 -21.375,-63.5 0,-40.125 20.25,-64.75 20.25,-24.625 56.50003,-24.625 33.875,0 52,18.75 18.25,18.75 20.625,49.75 l -48.875,2.625 q 0,-17.125 -6.625,-24.75 -6.5,-7.625 -15.375,-7.625 -24.75003,0 -24.75003,49.75 0,27.875 6.37503,37.875 6.5,10 18.125,10 20.75,0 23.25,-28.25 z m 211.75,-105.5 v 170.625 h -52.375 v -66.375 h -40 v 66.375 h -52.375 v -170.625 h 52.375 v 62.75 h 40 v -62.75 z m 123.75,170.625 -9.625,-33.625 h -45.75 l -10.25,33.625 h -42.5 l 52.75,-170.625 h 55.375 l 53.375,170.625 z m -46.5,-70.875 h 27.75 l -13.875,-49.5 z m 98,21.5 48.625,-8.75 q 6.125,20.625 31.5,20.625 19.75,0 19.75,-10.5 0,-5.5 -4.625,-8.5 -4.5,-3.125 -16.25,-5.5 -44.875,-8.625 -57.625,-22.5 -12.75,-13.875 -12.75,-32.625 0,-24.125 18.25,-40.125 18.375,-16 52.75,-16 52.125,0 68.875,41.875 l -43.375,13.125 q -6.75,-17.125 -27.375,-17.125 -17.125,0 -17.125,10.625 0,4.75 3.875,7.375 3.875,2.625 15,5 30.625,6.5 43.5,11.5 12.875,5 21.5,17.125 8.625,12 8.625,28.375 0,25.875 -21,42 -21,16 -55.125,16 -62.375,0 -77,-52 z"
           id="path56" /></g></g><g
       inkscape:groupmode="layer"
       id="layer2"
       inkscape:label="logo"
       transform="translate(-173.69571,-210.52988)"><rect
         style="fill:url(#radialGradient3);stroke:none;stroke-width:0;stroke-linecap:butt;stroke-linejoin:miter;stroke-miterlimit:4;stroke-dasharray:none;stroke-opacity:1;paint-order:normal"
         id="rect6"
         width="65.48101"
         height="65.481049"
         x="127.54937"
         y="-111.92412"
         transform="rotate(45)"
         inkscape:label="background" /><g
         inkscape:groupmode="layer"
         id="layer3"
         inkscape:label="lines"
         style="display:inline"><path
           style="display:inline;fill:#d9f99d;fill-opacity:0;stroke:#bae6fd;stroke-width:2.64583;stroke-linecap:round;stroke-linejoin:miter;stroke-miterlimit:4;stroke-dasharray:none;stroke-opacity:1;paint-order:stroke fill markers"
           d="m 151.12438,85.122438 c 0,-5.521577 0,-11.043042 2.1087,-14.983913 2.10871,-3.94087 6.32587,-6.300779 10.28981,-6.550606 3.96394,-0.249826 7.6742,1.610455 12.68912,11.196512 5.01492,9.586057 11.3339,26.896739 12.18614,21.967607 0.85224,-4.92913 -3.76238,-32.097505 -3.36656,-45.591634 0.39583,-13.494129 5.80215,-13.312402 11.20857,-13.130672"
           id="path11-2"
           inkscape:path-effect="#path-effect11-4"
           inkscape:original-d="m 151.12438,85.122438 c 0,-5.521577 0,-11.043042 0,-16.564733 4.21741,-2.36005 8.43457,-4.719956 12.65197,-7.080005 3.71048,1.860393 7.42074,3.720674 11.13122,5.581067 6.31936,17.311722 12.63834,34.622403 18.9577,51.934103 -4.61489,-27.169961 -9.2295,-54.338337 -13.84439,-81.508329 5.40654,0.181734 10.81286,0.36346 16.21928,0.545191"
           transform="translate(-16.517626,-16.196103)"
           sodipodi:nodetypes="ccccccc"
           inkscape:label="path1" /><path
           style="display:inline;fill:#06b6d4;fill-opacity:0;stroke:#7dd3fc;stroke-width:2.64583;stroke-linecap:round;stroke-linejoin:miter;stroke-miterlimit:4;stroke-dasharray:none;stroke-opacity:1;paint-order:stroke fill markers"
           d="m 150.18595,86.568295 c 0,-6.846943 0,-13.693752 1.38604,-17.102234 1.38605,-3.408481 4.15797,-3.378359 13.2221,-8.229936 9.06414,-4.851577 24.41936,-14.584248 25.41845,-11.307592 0.99909,3.276655 -12.35809,19.562238 -21.20013,21.551979 -8.84203,1.989742 -13.16787,-10.316615 -14.79983,-18.655127 -1.63195,-8.338512 -0.56981,-12.708285 0.49236,-17.078142"
           id="path11-2-2"
           inkscape:path-effect="#path-effect11-4-8"
           inkscape:original-d="m 150.18595,86.568295 c 0,-6.846943 0,-13.693752 0,-20.540839 2.77209,0.03012 5.54401,0.06024 8.3161,0.09037 15.35618,-9.733276 30.7114,-19.465946 46.06759,-29.199235 -13.35801,16.286598 -26.71519,32.572181 -40.07317,48.858737 -4.3261,-12.307072 -8.65194,-24.613429 -12.97803,-36.92051 1.06218,-4.369947 2.12433,-8.739719 3.1865,-13.109575"
           transform="translate(-4.0036836,-6.0664473)"
           sodipodi:nodetypes="ccccccc"
           inkscape:label="path2" /><path
           style="display:inline;fill:#06b6d4;fill-opacity:0;stroke:#38bdf8;stroke-width:2.64583;stroke-linecap:round;stroke-linejoin:miter;stroke-miterlimit:4;stroke-dasharray:none;stroke-opacity:1;paint-order:stroke fill markers"
           d="m 149.24748,86.568295 c 0,-6.846944 0,-13.693752 -2.15025,-19.201625 -2.15024,-5.507874 -6.45048,-9.676288 -6.23046,-14.58612 0.22003,-4.909832 4.96029,-10.560503 9.43002,-16.736804 4.46973,-6.176301 8.66836,-12.877445 13.22121,-12.794446 4.55285,0.083 9.45935,6.950143 13.74261,9.802702 4.28326,2.852559 7.94284,1.690161 11.6025,0.527737"
           id="path11-2-9"
           inkscape:path-effect="#path-effect11-4-9"
           inkscape:original-d="m 149.24748,86.568295 c 0,-6.846944 0,-13.693752 0,-20.540839 -4.30049,-4.168661 -8.60073,-8.337075 -12.90122,-12.505732 4.74054,-5.651006 9.4808,-11.301675 14.22135,-16.952698 4.19891,-6.701579 8.39754,-13.402724 12.59644,-20.1043 4.9068,6.867573 9.8133,13.734714 14.72009,20.602281 3.65973,-1.162447 7.31931,-2.324845 10.97897,-3.487268"
           transform="translate(8.5103082,5.5090745)"
           sodipodi:nodetypes="ccccccc"
           inkscape:label="path3" /><path
           style="display:inline;fill:#06b6d4;fill-opacity:0;stroke:#0ea5e9;stroke-width:2.64583;stroke-linecap:round;stroke-linejoin:miter;stroke-miterlimit:4;stroke-dasharray:none;stroke-opacity:1;paint-order:stroke fill markers"
           d="m 148.30903,86.568295 c 0,-5.867168 0,-11.734219 4.76441,-18.344398 4.76441,-6.610179 14.29263,-13.962784 10.55106,-20.290896 -3.74157,-6.328112 -20.75245,-11.630932 -27.39338,-17.009856 -6.64092,-5.378925 -2.91104,-10.833278 0.83053,-14.885591 3.74157,-4.052313 7.49437,-6.7021072 9.37089,-10.1473523 1.87651,-3.4452452 1.87651,-7.6856097 1.87651,-11.9260602"
           id="path11-2-6"
           transform="translate(21.024277,17.08458)"
           sodipodi:nodetypes="ccccccc"
           inkscape:label="path4"
           inkscape:original-d="m 148.30903,86.568295 c 0,-5.867168 0,-11.734219 0,-17.601511 9.52882,-7.353064 19.05704,-14.70567 28.58586,-22.058739 -17.01196,-5.303157 -34.02284,-10.605976 -51.03481,-15.909135 3.73012,-5.454688 7.46001,-10.909039 11.19011,-16.363715 3.75303,-2.649951 7.50583,-5.2997487 11.25886,-7.9497031 0,-4.2405354 0,-8.4808999 0,-12.7213504"
           inkscape:path-effect="#path-effect11-4-50" /><path
           style="display:inline;fill:#06b6d4;fill-opacity:0;stroke:#0284c7;stroke-width:2.64583;stroke-linecap:round;stroke-linejoin:miter;stroke-miterlimit:4;stroke-dasharray:none;stroke-opacity:1;paint-order:stroke fill markers"
           d="m 147.37055,86.568295 c 0,-6.846945 0,-13.693752 2.44474,-17.612542 2.44475,-3.918791 7.33393,-4.909221 8.63914,-6.586098 1.3052,-1.676877 -0.97374,-4.039992 -4.18401,-4.238016 -3.21027,-0.198023 -7.35149,1.769077 -12.19474,3.801589 -4.84326,2.032512 -10.38798,4.1302 -17.3111,0.501316 -6.92312,-3.628883 -15.22395,-12.984087 -23.52494,-22.339474"
           id="path11-2-5"
           inkscape:path-effect="#path-effect11-4-4"
           inkscape:original-d="m 147.37055,86.568295 c 0,-6.846945 0,-13.693752 0,-20.540839 4.88949,-0.990493 9.77867,-1.980925 14.66816,-2.971418 -2.27908,-2.363259 -4.55802,-4.726376 -6.8371,-7.089635 -4.14146,1.967213 -8.28268,3.934311 -12.42413,5.901522 -5.54506,2.097813 -11.08978,4.195505 -16.63485,6.293322 -8.30117,-9.355585 -16.602,-18.710789 -24.90299,-28.066177"
           transform="translate(33.53828,5.5090567)"
           sodipodi:nodetypes="ccccccc"
           inkscape:label="path5" /><path
           style="display:inline;fill:#06b6d4;fill-opacity:0;stroke:#0369a1;stroke-width:2.64583;stroke-linecap:round;stroke-linejoin:miter;stroke-miterlimit:4;stroke-dasharray:none;stroke-opacity:1;paint-order:stroke fill markers"
           d="m 146.43207,86.568295 c 0,-6.846946 0,-13.693752 -1.55095,-18.661894 -1.55096,-4.968141 -4.65268,-8.057147 -4.74292,-10.670497 -0.0902,-2.61335 2.83101,-4.75072 1.66988,-7.025313 -1.16114,-2.274594 -6.40453,-4.686127 -10.93543,-5.566461 -4.53091,-0.880333 -8.3488,-0.229363 -11.40306,-2.654618 -3.05425,-2.425255 -5.34456,-7.926552 -7.63491,-13.427956"
           id="path11-2-1"
           inkscape:path-effect="#path-effect11-4-0"
           inkscape:original-d="m 146.43207,86.568295 c 0,-6.846946 0,-13.693752 0,-20.540839 -3.10191,-3.089196 -6.20363,-6.178201 -9.30554,-9.267399 2.92143,-2.137505 5.84268,-4.274875 8.76412,-6.41238 -5.24371,-2.41168 -10.4871,-4.823213 -15.7308,-7.234889 -3.81811,0.651009 -7.636,1.301979 -11.45411,1.952988 -2.2904,-5.501519 -4.58071,-11.002815 -6.87106,-16.50422"
           transform="translate(46.052284,-6.0664673)"
           sodipodi:nodetypes="ccccccc"
           inkscape:label="path6" /><path
           style="display:inline;fill:#06b6d4;fill-opacity:0;stroke:#075985;stroke-width:2.64583;stroke-linecap:round;stroke-linejoin:miter;stroke-miterlimit:4;stroke-dasharray:none;stroke-opacity:1;paint-order:stroke fill markers"
           d="m 145.49359,86.568295 c 0,-6.846944 0,-13.693756 -2.75592,-16.917744 -2.75591,-3.223988 -8.2674,-2.824906 -13.13953,3.929929 -4.87212,6.754835 -9.10428,19.864581 -14.16439,20.546828 -5.06011,0.682246 -10.94758,-11.063119 -11.63358,-20.319351 -0.686,-9.256233 3.82954,-16.022251 8.92103,-20.063643 5.09148,-4.041393 10.7584,-5.357702 16.42544,-6.674039"
           id="path11-2-60"
           inkscape:path-effect="#path-effect11-4-93"
           inkscape:original-d="m 145.49359,86.568295 c 0,-6.846944 0,-13.693756 0,-20.540839 -5.51183,0.399107 -11.02332,0.79819 -16.53516,1.197297 -4.23241,13.110564 -8.46456,26.22031 -12.69698,39.330867 -5.88781,-11.746068 -11.77528,-23.491429 -17.663084,-35.237482 4.515804,-6.766414 9.031344,-13.532433 13.547154,-20.298852 5.66716,-1.316364 17.00112,-3.949011 17.00112,-3.949011"
           transform="translate(58.566277,-17.64196)"
           sodipodi:nodetypes="ccccccc"
           inkscape:label="path7" /><path
           style="display:none;fill:#4ade80;fill-opacity:0;stroke:#4ade80;stroke-width:1.32292;stroke-linecap:round;stroke-linejoin:miter;stroke-miterlimit:4;stroke-dasharray:none;stroke-opacity:1;paint-order:stroke fill markers"
           d="M 123.03123,57.350814 V 79.642605"
           id="path11"
           inkscape:label="left_guide"
           sodipodi:nodetypes="cc" /><path
           style="display:none;fill:#06b6d4;fill-opacity:0;stroke:#4ade80;stroke-width:1.32292;stroke-linecap:round;stroke-linejoin:miter;stroke-miterlimit:4;stroke-dasharray:none;stroke-opacity:1;paint-order:stroke fill markers"
           d="M 215.63539,57.350788 V 83.498224"
           id="path12"
           inkscape:label="right_guide"
           sodipodi:nodetypes="cc" /></g><rect
         style="fill:none;fill-opacity:0;stroke:#0ea5e9;stroke-width:3.96875;stroke-linecap:round;stroke-linejoin:miter;stroke-miterlimit:4;stroke-dasharray:none;stroke-opacity:1;paint-order:stroke fill markers"
         id="rect12"
         width="65.481003"
         height="65.481003"
         x="127.54937"
         y="-111.92412"
         inkscape:label="outline"
         transform="rotate(45)"
         inkscape:export-filename="main-logo.svg"
         inkscape:export-xdpi="129.30579"
         inkscape:export-ydpi="129.30579" /></g></g><g
     inkscape:groupmode="layer"
     id="layer6"
     inkscape:label="readme_banner"
     transform="translate(-348.66662)"><use
       x="0"
       y="0"
       xlink:href="#rect25"
       id="use47"
       transform="matrix(1,0,0,0.49999995,-32.329992,133.54555)"
       inkscape:label="gradient_bg" /><use
       x="0"
       y="0"
       xlink:href="#text1"
       id="use58"
       transform="matrix(0.83574086,0,0,0.83574086,386.68305,127.40611)"
       inkscape:label="text" /><use
       x="0"
       y="0"
       xlink:href="#layer2"
       id="use49"
       transform="matrix(0.75428376,0,0,0.75428376,394.18469,157.87383)"
       inkscape:label="logo" /></g></svg>
