<?xml version="1.0" encoding="utf-8" standalone="no"?>
<!DOCTYPE svg PUBLIC "-//W3C//DTD SVG 1.1//EN"
  "http://www.w3.org/Graphics/SVG/1.1/DTD/svg11.dtd">
<svg xmlns:xlink="http://www.w3.org/1999/xlink" width="432pt" height="180pt" viewBox="0 0 432 180" xmlns="http://www.w3.org/2000/svg" version="1.1">
 <metadata>
  <rdf:RDF xmlns:dc="http://purl.org/dc/elements/1.1/" xmlns:cc="http://creativecommons.org/ns#" xmlns:rdf="http://www.w3.org/1999/02/22-rdf-syntax-ns#">
   <cc:Work>
    <dc:type rdf:resource="http://purl.org/dc/dcmitype/StillImage"/>
    <dc:date>2026-06-15T17:02:50.904582</dc:date>
    <dc:format>image/svg+xml</dc:format>
    <dc:creator>
     <cc:Agent>
      <dc:title>Matplotlib v3.11.0, https://matplotlib.org/</dc:title>
     </cc:Agent>
    </dc:creator>
   </cc:Work>
  </rdf:RDF>
 </metadata>
 <defs>
  <style type="text/css">*{stroke-linejoin: round; stroke-linecap: butt}</style>
 </defs>
 <g id="figure_1">
  <g id="patch_1">
   <path d="M 0 180 
L 432 180 
L 432 0 
L 0 0 
z
" style="fill: #ffffff"/>
  </g>
  <g id="axes_1">
   <g id="patch_2">
    <path d="M 47.962344 137.877656 
L 206.357355 137.877656 
L 206.357355 35.6 
L 47.962344 35.6 
z
" style="fill: #ffffff"/>
   </g>
   <g id="matplotlib.axis_1">
    <g id="xtick_1">
     <g id="line2d_1">
      <path d="M 55.162117 137.877656 
L 55.162117 35.6 
" clip-path="url(#pf8bbfdc2ff)" style="fill: none; stroke: #b0b0b0; stroke-opacity: 0.3; stroke-width: 0.8; stroke-linecap: square"/>
     </g>
     <g id="line2d_2">
      <defs>
       <path id="m4b85679f79" d="M 0 0 
L 0 3.5 
" style="stroke: #000000; stroke-width: 0.8"/>
      </defs>
      <g>
       <use xlink:href="#m4b85679f79" x="55.162117" y="137.877656" style="stroke: #000000; stroke-width: 0.8"/>
      </g>
     </g>
     <g id="text_1">
      <!-- 0.0 -->
      <g transform="translate(47.210555 152.475313) scale(0.1 -0.1)">
       <defs>
        <path id="DejaVuSans-13" d="M 2034 4250 
Q 1547 4250 1301 3770 
Q 1056 3291 1056 2328 
Q 1056 1369 1301 889 
Q 1547 409 2034 409 
Q 2525 409 2770 889 
Q 3016 1369 3016 2328 
Q 3016 3291 2770 3770 
Q 2525 4250 2034 4250 
z
M 2034 4750 
Q 2819 4750 3233 4129 
Q 3647 3509 3647 2328 
Q 3647 1150 3233 529 
Q 2819 -91 2034 -91 
Q 1250 -91 836 529 
Q 422 1150 422 2328 
Q 422 3509 836 4129 
Q 1250 4750 2034 4750 
z
" transform="scale(0.015625)"/>
        <path id="DejaVuSans-11" d="M 684 794 
L 1344 794 
L 1344 0 
L 684 0 
L 684 794 
z
" transform="scale(0.015625)"/>
       </defs>
       <use xlink:href="#DejaVuSans-13"/>
       <use xlink:href="#DejaVuSans-11" transform="translate(63.625 0)"/>
       <use xlink:href="#DejaVuSans-13" transform="translate(95.40625 0)"/>
      </g>
     </g>
    </g>
    <g id="xtick_2">
     <g id="line2d_3">
      <path d="M 91.160983 137.877656 
L 91.160983 35.6 
" clip-path="url(#pf8bbfdc2ff)" style="fill: none; stroke: #b0b0b0; stroke-opacity: 0.3; stroke-width: 0.8; stroke-linecap: square"/>
     </g>
     <g id="line2d_4">
      <g>
       <use xlink:href="#m4b85679f79" x="91.160983" y="137.877656" style="stroke: #000000; stroke-width: 0.8"/>
      </g>
     </g>
     <g id="text_2">
      <!-- 2.5 -->
      <g transform="translate(83.209421 152.475313) scale(0.1 -0.1)">
       <defs>
        <path id="DejaVuSans-15" d="M 1228 531 
L 3431 531 
L 3431 0 
L 469 0 
L 469 531 
Q 828 903 1448 1529 
Q 2069 2156 2228 2338 
Q 2531 2678 2651 2914 
Q 2772 3150 2772 3378 
Q 2772 3750 2511 3984 
Q 2250 4219 1831 4219 
Q 1534 4219 1204 4116 
Q 875 4013 500 3803 
L 500 4441 
Q 881 4594 1212 4672 
Q 1544 4750 1819 4750 
Q 2544 4750 2975 4387 
Q 3406 4025 3406 3419 
Q 3406 3131 3298 2873 
Q 3191 2616 2906 2266 
Q 2828 2175 2409 1742 
Q 1991 1309 1228 531 
z
" transform="scale(0.015625)"/>
        <path id="DejaVuSans-18" d="M 691 4666 
L 3169 4666 
L 3169 4134 
L 1269 4134 
L 1269 2991 
Q 1406 3038 1543 3061 
Q 1681 3084 1819 3084 
Q 2600 3084 3056 2656 
Q 3513 2228 3513 1497 
Q 3513 744 3044 326 
Q 2575 -91 1722 -91 
Q 1428 -91 1123 -41 
Q 819 9 494 109 
L 494 744 
Q 775 591 1075 516 
Q 1375 441 1709 441 
Q 2250 441 2565 725 
Q 2881 1009 2881 1497 
Q 2881 1984 2565 2268 
Q 2250 2553 1709 2553 
Q 1456 2553 1204 2497 
Q 953 2441 691 2322 
L 691 4666 
z
" transform="scale(0.015625)"/>
       </defs>
       <use xlink:href="#DejaVuSans-15"/>
       <use xlink:href="#DejaVuSans-11" transform="translate(63.625 0)"/>
       <use xlink:href="#DejaVuSans-18" transform="translate(95.40625 0)"/>
      </g>
     </g>
    </g>
    <g id="xtick_3">
     <g id="line2d_5">
      <path d="M 127.15985 137.877656 
L 127.15985 35.6 
" clip-path="url(#pf8bbfdc2ff)" style="fill: none; stroke: #b0b0b0; stroke-opacity: 0.3; stroke-width: 0.8; stroke-linecap: square"/>
     </g>
     <g id="line2d_6">
      <g>
       <use xlink:href="#m4b85679f79" x="127.15985" y="137.877656" style="stroke: #000000; stroke-width: 0.8"/>
      </g>
     </g>
     <g id="text_3">
      <!-- 5.0 -->
      <g transform="translate(119.208287 152.475313) scale(0.1 -0.1)">
       <use xlink:href="#DejaVuSans-18"/>
       <use xlink:href="#DejaVuSans-11" transform="translate(63.625 0)"/>
       <use xlink:href="#DejaVuSans-13" transform="translate(95.40625 0)"/>
      </g>
     </g>
    </g>
    <g id="xtick_4">
     <g id="line2d_7">
      <path d="M 163.158716 137.877656 
L 163.158716 35.6 
" clip-path="url(#pf8bbfdc2ff)" style="fill: none; stroke: #b0b0b0; stroke-opacity: 0.3; stroke-width: 0.8; stroke-linecap: square"/>
     </g>
     <g id="line2d_8">
      <g>
       <use xlink:href="#m4b85679f79" x="163.158716" y="137.877656" style="stroke: #000000; stroke-width: 0.8"/>
      </g>
     </g>
     <g id="text_4">
      <!-- 7.5 -->
      <g transform="translate(155.207153 152.475313) scale(0.1 -0.1)">
       <defs>
        <path id="DejaVuSans-1a" d="M 525 4666 
L 3525 4666 
L 3525 4397 
L 1831 0 
L 1172 0 
L 2766 4134 
L 525 4134 
L 525 4666 
z
" transform="scale(0.015625)"/>
       </defs>
       <use xlink:href="#DejaVuSans-1a"/>
       <use xlink:href="#DejaVuSans-11" transform="translate(63.625 0)"/>
       <use xlink:href="#DejaVuSans-18" transform="translate(95.40625 0)"/>
      </g>
     </g>
    </g>
    <g id="xtick_5">
     <g id="line2d_9">
      <path d="M 199.157582 137.877656 
L 199.157582 35.6 
" clip-path="url(#pf8bbfdc2ff)" style="fill: none; stroke: #b0b0b0; stroke-opacity: 0.3; stroke-width: 0.8; stroke-linecap: square"/>
     </g>
     <g id="line2d_10">
      <g>
       <use xlink:href="#m4b85679f79" x="199.157582" y="137.877656" style="stroke: #000000; stroke-width: 0.8"/>
      </g>
     </g>
     <g id="text_5">
      <!-- 10.0 -->
      <g transform="translate(188.02477 152.475313) scale(0.1 -0.1)">
       <defs>
        <path id="DejaVuSans-14" d="M 794 531 
L 1825 531 
L 1825 4091 
L 703 3866 
L 703 4441 
L 1819 4666 
L 2450 4666 
L 2450 531 
L 3481 531 
L 3481 0 
L 794 0 
L 794 531 
z
" transform="scale(0.015625)"/>
       </defs>
       <use xlink:href="#DejaVuSans-14"/>
       <use xlink:href="#DejaVuSans-13" transform="translate(63.625 0)"/>
       <use xlink:href="#DejaVuSans-11" transform="translate(127.25 0)"/>
       <use xlink:href="#DejaVuSans-13" transform="translate(159.03125 0)"/>
      </g>
     </g>
    </g>
    <g id="text_6">
     <!-- Value -->
     <g transform="translate(113.429381 166.476094) scale(0.1 -0.1)">
      <defs>
       <path id="DejaVuSans-39" d="M 1831 0 
L 50 4666 
L 709 4666 
L 2188 738 
L 3669 4666 
L 4325 4666 
L 2547 0 
L 1831 0 
z
" transform="scale(0.015625)"/>
       <path id="DejaVuSans-44" d="M 2194 1759 
Q 1497 1759 1228 1600 
Q 959 1441 959 1056 
Q 959 750 1161 570 
Q 1363 391 1709 391 
Q 2188 391 2477 730 
Q 2766 1069 2766 1631 
L 2766 1759 
L 2194 1759 
z
M 3341 1997 
L 3341 0 
L 2766 0 
L 2766 531 
Q 2569 213 2275 61 
Q 1981 -91 1556 -91 
Q 1019 -91 701 211 
Q 384 513 384 1019 
Q 384 1609 779 1909 
Q 1175 2209 1959 2209 
L 2766 2209 
L 2766 2266 
Q 2766 2663 2505 2880 
Q 2244 3097 1772 3097 
Q 1472 3097 1187 3025 
Q 903 2953 641 2809 
L 641 3341 
Q 956 3463 1253 3523 
Q 1550 3584 1831 3584 
Q 2591 3584 2966 3190 
Q 3341 2797 3341 1997 
z
" transform="scale(0.015625)"/>
       <path id="DejaVuSans-4f" d="M 603 4863 
L 1178 4863 
L 1178 0 
L 603 0 
L 603 4863 
z
" transform="scale(0.015625)"/>
       <path id="DejaVuSans-58" d="M 544 1381 
L 544 3500 
L 1119 3500 
L 1119 1403 
Q 1119 906 1312 657 
Q 1506 409 1894 409 
Q 2359 409 2629 706 
Q 2900 1003 2900 1516 
L 2900 3500 
L 3475 3500 
L 3475 0 
L 2900 0 
L 2900 538 
Q 2691 219 2414 64 
Q 2138 -91 1772 -91 
Q 1169 -91 856 284 
Q 544 659 544 1381 
z
M 1991 3584 
L 1991 3584 
z
" transform="scale(0.015625)"/>
       <path id="DejaVuSans-48" d="M 3597 1894 
L 3597 1613 
L 953 1613 
Q 991 1019 1311 708 
Q 1631 397 2203 397 
Q 2534 397 2845 478 
Q 3156 559 3463 722 
L 3463 178 
Q 3153 47 2828 -22 
Q 2503 -91 2169 -91 
Q 1331 -91 842 396 
Q 353 884 353 1716 
Q 353 2575 817 3079 
Q 1281 3584 2069 3584 
Q 2775 3584 3186 3129 
Q 3597 2675 3597 1894 
z
M 3022 2063 
Q 3016 2534 2758 2815 
Q 2500 3097 2075 3097 
Q 1594 3097 1305 2825 
Q 1016 2553 972 2059 
L 3022 2063 
z
" transform="scale(0.015625)"/>
      </defs>
      <use xlink:href="#DejaVuSans-39"/>
      <use xlink:href="#DejaVuSans-44" transform="translate(60.640625 0)"/>
      <use xlink:href="#DejaVuSans-4f" transform="translate(121.921875 0)"/>
      <use xlink:href="#DejaVuSans-58" transform="translate(149.703125 0)"/>
      <use xlink:href="#DejaVuSans-48" transform="translate(213.078125 0)"/>
     </g>
    </g>
   </g>
   <g id="matplotlib.axis_2">
    <g id="ytick_1">
     <g id="line2d_11">
      <path d="M 47.962344 137.877656 
L 206.357355 137.877656 
" clip-path="url(#pf8bbfdc2ff)" style="fill: none; stroke: #b0b0b0; stroke-opacity: 0.3; stroke-width: 0.8; stroke-linecap: square"/>
     </g>
     <g id="line2d_12">
      <defs>
       <path id="m704579a5e7" d="M 0 0 
L -3.5 0 
" style="stroke: #000000; stroke-width: 0.8"/>
      </defs>
      <g>
       <use xlink:href="#m704579a5e7" x="47.962344" y="137.877656" style="stroke: #000000; stroke-width: 0.8"/>
      </g>
     </g>
     <g id="text_7">
      <!-- 0.0 -->
      <g transform="translate(25.059219 141.676484) scale(0.1 -0.1)">
       <use xlink:href="#DejaVuSans-13"/>
       <use xlink:href="#DejaVuSans-11" transform="translate(63.625 0)"/>
       <use xlink:href="#DejaVuSans-13" transform="translate(95.40625 0)"/>
      </g>
     </g>
    </g>
    <g id="ytick_2">
     <g id="line2d_13">
      <path d="M 47.962344 108.655469 
L 206.357355 108.655469 
" clip-path="url(#pf8bbfdc2ff)" style="fill: none; stroke: #b0b0b0; stroke-opacity: 0.3; stroke-width: 0.8; stroke-linecap: square"/>
     </g>
     <g id="line2d_14">
      <g>
       <use xlink:href="#m704579a5e7" x="47.962344" y="108.655469" style="stroke: #000000; stroke-width: 0.8"/>
      </g>
     </g>
     <g id="text_8">
      <!-- 0.1 -->
      <g transform="translate(25.059219 112.454297) scale(0.1 -0.1)">
       <use xlink:href="#DejaVuSans-13"/>
       <use xlink:href="#DejaVuSans-11" transform="translate(63.625 0)"/>
       <use xlink:href="#DejaVuSans-14" transform="translate(95.40625 0)"/>
      </g>
     </g>
    </g>
    <g id="ytick_3">
     <g id="line2d_15">
      <path d="M 47.962344 79.433281 
L 206.357355 79.433281 
" clip-path="url(#pf8bbfdc2ff)" style="fill: none; stroke: #b0b0b0; stroke-opacity: 0.3; stroke-width: 0.8; stroke-linecap: square"/>
     </g>
     <g id="line2d_16">
      <g>
       <use xlink:href="#m704579a5e7" x="47.962344" y="79.433281" style="stroke: #000000; stroke-width: 0.8"/>
      </g>
     </g>
     <g id="text_9">
      <!-- 0.2 -->
      <g transform="translate(25.059219 83.232109) scale(0.1 -0.1)">
       <use xlink:href="#DejaVuSans-13"/>
       <use xlink:href="#DejaVuSans-11" transform="translate(63.625 0)"/>
       <use xlink:href="#DejaVuSans-15" transform="translate(95.40625 0)"/>
      </g>
     </g>
    </g>
    <g id="ytick_4">
     <g id="line2d_17">
      <path d="M 47.962344 50.211094 
L 206.357355 50.211094 
" clip-path="url(#pf8bbfdc2ff)" style="fill: none; stroke: #b0b0b0; stroke-opacity: 0.3; stroke-width: 0.8; stroke-linecap: square"/>
     </g>
     <g id="line2d_18">
      <g>
       <use xlink:href="#m704579a5e7" x="47.962344" y="50.211094" style="stroke: #000000; stroke-width: 0.8"/>
      </g>
     </g>
     <g id="text_10">
      <!-- 0.3 -->
      <g transform="translate(25.059219 54.009922) scale(0.1 -0.1)">
       <defs>
        <path id="DejaVuSans-16" d="M 2597 2516 
Q 3050 2419 3304 2112 
Q 3559 1806 3559 1356 
Q 3559 666 3084 287 
Q 2609 -91 1734 -91 
Q 1441 -91 1130 -33 
Q 819 25 488 141 
L 488 750 
Q 750 597 1062 519 
Q 1375 441 1716 441 
Q 2309 441 2620 675 
Q 2931 909 2931 1356 
Q 2931 1769 2642 2001 
Q 2353 2234 1838 2234 
L 1294 2234 
L 1294 2753 
L 1863 2753 
Q 2328 2753 2575 2939 
Q 2822 3125 2822 3475 
Q 2822 3834 2567 4026 
Q 2313 4219 1838 4219 
Q 1578 4219 1281 4162 
Q 984 4106 628 3988 
L 628 4550 
Q 988 4650 1302 4700 
Q 1616 4750 1894 4750 
Q 2613 4750 3031 4423 
Q 3450 4097 3450 3541 
Q 3450 3153 3228 2886 
Q 3006 2619 2597 2516 
z
" transform="scale(0.015625)"/>
       </defs>
       <use xlink:href="#DejaVuSans-13"/>
       <use xlink:href="#DejaVuSans-11" transform="translate(63.625 0)"/>
       <use xlink:href="#DejaVuSans-16" transform="translate(95.40625 0)"/>
      </g>
     </g>
    </g>
    <g id="text_11">
     <!-- Probability (PMF) -->
     <g transform="translate(18.656875 128.865391) rotate(-90) scale(0.1 -0.1)">
      <defs>
       <path id="DejaVuSans-33" d="M 1259 4147 
L 1259 2394 
L 2053 2394 
Q 2494 2394 2734 2622 
Q 2975 2850 2975 3272 
Q 2975 3691 2734 3919 
Q 2494 4147 2053 4147 
L 1259 4147 
z
M 628 4666 
L 2053 4666 
Q 2838 4666 3239 4311 
Q 3641 3956 3641 3272 
Q 3641 2581 3239 2228 
Q 2838 1875 2053 1875 
L 1259 1875 
L 1259 0 
L 628 0 
L 628 4666 
z
" transform="scale(0.015625)"/>
       <path id="DejaVuSans-55" d="M 2631 2963 
Q 2534 3019 2420 3045 
Q 2306 3072 2169 3072 
Q 1681 3072 1420 2755 
Q 1159 2438 1159 1844 
L 1159 0 
L 581 0 
L 581 3500 
L 1159 3500 
L 1159 2956 
Q 1341 3275 1631 3429 
Q 1922 3584 2338 3584 
Q 2397 3584 2469 3576 
Q 2541 3569 2628 3553 
L 2631 2963 
z
" transform="scale(0.015625)"/>
       <path id="DejaVuSans-52" d="M 1959 3097 
Q 1497 3097 1228 2736 
Q 959 2375 959 1747 
Q 959 1119 1226 758 
Q 1494 397 1959 397 
Q 2419 397 2687 759 
Q 2956 1122 2956 1747 
Q 2956 2369 2687 2733 
Q 2419 3097 1959 3097 
z
M 1959 3584 
Q 2709 3584 3137 3096 
Q 3566 2609 3566 1747 
Q 3566 888 3137 398 
Q 2709 -91 1959 -91 
Q 1206 -91 779 398 
Q 353 888 353 1747 
Q 353 2609 779 3096 
Q 1206 3584 1959 3584 
z
" transform="scale(0.015625)"/>
       <path id="DejaVuSans-45" d="M 3116 1747 
Q 3116 2381 2855 2742 
Q 2594 3103 2138 3103 
Q 1681 3103 1420 2742 
Q 1159 2381 1159 1747 
Q 1159 1113 1420 752 
Q 1681 391 2138 391 
Q 2594 391 2855 752 
Q 3116 1113 3116 1747 
z
M 1159 2969 
Q 1341 3281 1617 3432 
Q 1894 3584 2278 3584 
Q 2916 3584 3314 3078 
Q 3713 2572 3713 1747 
Q 3713 922 3314 415 
Q 2916 -91 2278 -91 
Q 1894 -91 1617 61 
Q 1341 213 1159 525 
L 1159 0 
L 581 0 
L 581 4863 
L 1159 4863 
L 1159 2969 
z
" transform="scale(0.015625)"/>
       <path id="DejaVuSans-4c" d="M 603 3500 
L 1178 3500 
L 1178 0 
L 603 0 
L 603 3500 
z
M 603 4863 
L 1178 4863 
L 1178 4134 
L 603 4134 
L 603 4863 
z
" transform="scale(0.015625)"/>
       <path id="DejaVuSans-57" d="M 1172 4494 
L 1172 3500 
L 2356 3500 
L 2356 3053 
L 1172 3053 
L 1172 1153 
Q 1172 725 1289 603 
Q 1406 481 1766 481 
L 2356 481 
L 2356 0 
L 1766 0 
Q 1100 0 847 248 
Q 594 497 594 1153 
L 594 3053 
L 172 3053 
L 172 3500 
L 594 3500 
L 594 4494 
L 1172 4494 
z
" transform="scale(0.015625)"/>
       <path id="DejaVuSans-5c" d="M 2059 -325 
Q 1816 -950 1584 -1140 
Q 1353 -1331 966 -1331 
L 506 -1331 
L 506 -850 
L 844 -850 
Q 1081 -850 1212 -737 
Q 1344 -625 1503 -206 
L 1606 56 
L 191 3500 
L 800 3500 
L 1894 763 
L 2988 3500 
L 3597 3500 
L 2059 -325 
z
" transform="scale(0.015625)"/>
       <path id="DejaVuSans-3" transform="scale(0.015625)"/>
       <path id="DejaVuSans-b" d="M 1984 4856 
Q 1566 4138 1362 3434 
Q 1159 2731 1159 2009 
Q 1159 1288 1364 580 
Q 1569 -128 1984 -844 
L 1484 -844 
Q 1016 -109 783 600 
Q 550 1309 550 2009 
Q 550 2706 781 3412 
Q 1013 4119 1484 4856 
L 1984 4856 
z
" transform="scale(0.015625)"/>
       <path id="DejaVuSans-30" d="M 628 4666 
L 1569 4666 
L 2759 1491 
L 3956 4666 
L 4897 4666 
L 4897 0 
L 4281 0 
L 4281 4097 
L 3078 897 
L 2444 897 
L 1241 4097 
L 1241 0 
L 628 0 
L 628 4666 
z
" transform="scale(0.015625)"/>
       <path id="DejaVuSans-29" d="M 628 4666 
L 3309 4666 
L 3309 4134 
L 1259 4134 
L 1259 2759 
L 3109 2759 
L 3109 2228 
L 1259 2228 
L 1259 0 
L 628 0 
L 628 4666 
z
" transform="scale(0.015625)"/>
       <path id="DejaVuSans-c" d="M 513 4856 
L 1013 4856 
Q 1481 4119 1714 3412 
Q 1947 2706 1947 2009 
Q 1947 1309 1714 600 
Q 1481 -109 1013 -844 
L 513 -844 
Q 928 -128 1133 580 
Q 1338 1288 1338 2009 
Q 1338 2731 1133 3434 
Q 928 4138 513 4856 
z
" transform="scale(0.015625)"/>
      </defs>
      <use xlink:href="#DejaVuSans-33"/>
      <use xlink:href="#DejaVuSans-55" transform="translate(58.546875 0)"/>
      <use xlink:href="#DejaVuSans-52" transform="translate(97.453125 0)"/>
      <use xlink:href="#DejaVuSans-45" transform="translate(158.640625 0)"/>
      <use xlink:href="#DejaVuSans-44" transform="translate(222.125 0)"/>
      <use xlink:href="#DejaVuSans-45" transform="translate(283.40625 0)"/>
      <use xlink:href="#DejaVuSans-4c" transform="translate(346.890625 0)"/>
      <use xlink:href="#DejaVuSans-4f" transform="translate(374.671875 0)"/>
      <use xlink:href="#DejaVuSans-4c" transform="translate(402.453125 0)"/>
      <use xlink:href="#DejaVuSans-57" transform="translate(430.234375 0)"/>
      <use xlink:href="#DejaVuSans-5c" transform="translate(469.4375 0)"/>
      <use xlink:href="#DejaVuSans-3" transform="translate(528.625 0)"/>
      <use xlink:href="#DejaVuSans-b" transform="translate(560.40625 0)"/>
      <use xlink:href="#DejaVuSans-33" transform="translate(599.421875 0)"/>
      <use xlink:href="#DejaVuSans-30" transform="translate(659.71875 0)"/>
      <use xlink:href="#DejaVuSans-29" transform="translate(746 0)"/>
      <use xlink:href="#DejaVuSans-c" transform="translate(803.515625 0)"/>
     </g>
    </g>
   </g>
   <g id="line2d_19">
    <path d="M 55.162117 40.470365 
L 69.561664 40.470365 
L 83.96121 40.470365 
L 98.360757 137.877656 
L 112.760303 137.877656 
L 127.15985 137.877656 
L 141.559396 137.877656 
L 155.958943 137.877656 
L 170.358489 137.877656 
L 184.758036 137.877656 
L 199.157582 137.877656 
" clip-path="url(#pf8bbfdc2ff)" style="fill: none; stroke: #fcc5cf; stroke-width: 1.5; stroke-linecap: square"/>
    <defs>
     <path id="m2eed5a410c" d="M 0 3 
C 0.795609 3 1.55874 2.683901 2.12132 2.12132 
C 2.683901 1.55874 3 0.795609 3 0 
C 3 -0.795609 2.683901 -1.55874 2.12132 -2.12132 
C 1.55874 -2.683901 0.795609 -3 0 -3 
C -0.795609 -3 -1.55874 -2.683901 -2.12132 -2.12132 
C -2.683901 -1.55874 -3 -0.795609 -3 0 
C -3 0.795609 -2.683901 1.55874 -2.12132 2.12132 
C -1.55874 2.683901 -0.795609 3 0 3 
z
" style="stroke: #fcc5cf"/>
    </defs>
    <g clip-path="url(#pf8bbfdc2ff)">
     <use xlink:href="#m2eed5a410c" x="55.162117" y="40.470365" style="fill: #fcc5cf; stroke: #fcc5cf"/>
     <use xlink:href="#m2eed5a410c" x="69.561664" y="40.470365" style="fill: #fcc5cf; stroke: #fcc5cf"/>
     <use xlink:href="#m2eed5a410c" x="83.96121" y="40.470365" style="fill: #fcc5cf; stroke: #fcc5cf"/>
     <use xlink:href="#m2eed5a410c" x="98.360757" y="137.877656" style="fill: #fcc5cf; stroke: #fcc5cf"/>
     <use xlink:href="#m2eed5a410c" x="112.760303" y="137.877656" style="fill: #fcc5cf; stroke: #fcc5cf"/>
     <use xlink:href="#m2eed5a410c" x="127.15985" y="137.877656" style="fill: #fcc5cf; stroke: #fcc5cf"/>
     <use xlink:href="#m2eed5a410c" x="141.559396" y="137.877656" style="fill: #fcc5cf; stroke: #fcc5cf"/>
     <use xlink:href="#m2eed5a410c" x="155.958943" y="137.877656" style="fill: #fcc5cf; stroke: #fcc5cf"/>
     <use xlink:href="#m2eed5a410c" x="170.358489" y="137.877656" style="fill: #fcc5cf; stroke: #fcc5cf"/>
     <use xlink:href="#m2eed5a410c" x="184.758036" y="137.877656" style="fill: #fcc5cf; stroke: #fcc5cf"/>
     <use xlink:href="#m2eed5a410c" x="199.157582" y="137.877656" style="fill: #fcc5cf; stroke: #fcc5cf"/>
    </g>
   </g>
   <g id="line2d_20">
    <path d="M 55.162117 89.17401 
L 69.561664 89.17401 
L 83.96121 89.17401 
L 98.360757 89.17401 
L 112.760303 89.17401 
L 127.15985 89.17401 
L 141.559396 137.877656 
L 155.958943 137.877656 
L 170.358489 137.877656 
L 184.758036 137.877656 
L 199.157582 137.877656 
" clip-path="url(#pf8bbfdc2ff)" style="fill: none; stroke: #f88296; stroke-width: 1.5; stroke-linecap: square"/>
    <defs>
     <path id="m95de3920a0" d="M 0 3 
C 0.795609 3 1.55874 2.683901 2.12132 2.12132 
C 2.683901 1.55874 3 0.795609 3 0 
C 3 -0.795609 2.683901 -1.55874 2.12132 -2.12132 
C 1.55874 -2.683901 0.795609 -3 0 -3 
C -0.795609 -3 -1.55874 -2.683901 -2.12132 -2.12132 
C -2.683901 -1.55874 -3 -0.795609 -3 0 
C -3 0.795609 -2.683901 1.55874 -2.12132 2.12132 
C -1.55874 2.683901 -0.795609 3 0 3 
z
" style="stroke: #f88296"/>
    </defs>
    <g clip-path="url(#pf8bbfdc2ff)">
     <use xlink:href="#m95de3920a0" x="55.162117" y="89.17401" style="fill: #f88296; stroke: #f88296"/>
     <use xlink:href="#m95de3920a0" x="69.561664" y="89.17401" style="fill: #f88296; stroke: #f88296"/>
     <use xlink:href="#m95de3920a0" x="83.96121" y="89.17401" style="fill: #f88296; stroke: #f88296"/>
     <use xlink:href="#m95de3920a0" x="98.360757" y="89.17401" style="fill: #f88296; stroke: #f88296"/>
     <use xlink:href="#m95de3920a0" x="112.760303" y="89.17401" style="fill: #f88296; stroke: #f88296"/>
     <use xlink:href="#m95de3920a0" x="127.15985" y="89.17401" style="fill: #f88296; stroke: #f88296"/>
     <use xlink:href="#m95de3920a0" x="141.559396" y="137.877656" style="fill: #f88296; stroke: #f88296"/>
     <use xlink:href="#m95de3920a0" x="155.958943" y="137.877656" style="fill: #f88296; stroke: #f88296"/>
     <use xlink:href="#m95de3920a0" x="170.358489" y="137.877656" style="fill: #f88296; stroke: #f88296"/>
     <use xlink:href="#m95de3920a0" x="184.758036" y="137.877656" style="fill: #f88296; stroke: #f88296"/>
     <use xlink:href="#m95de3920a0" x="199.157582" y="137.877656" style="fill: #f88296; stroke: #f88296"/>
    </g>
   </g>
   <g id="line2d_21">
    <path d="M 55.162117 111.312031 
L 69.561664 111.312031 
L 83.96121 111.312031 
L 98.360757 111.312031 
L 112.760303 111.312031 
L 127.15985 111.312031 
L 141.559396 111.312031 
L 155.958943 111.312031 
L 170.358489 111.312031 
L 184.758036 111.312031 
L 199.157582 111.312031 
" clip-path="url(#pf8bbfdc2ff)" style="fill: none; stroke: #f43f5e; stroke-width: 1.5; stroke-linecap: square"/>
    <defs>
     <path id="m3443749631" d="M 0 3 
C 0.795609 3 1.55874 2.683901 2.12132 2.12132 
C 2.683901 1.55874 3 0.795609 3 0 
C 3 -0.795609 2.683901 -1.55874 2.12132 -2.12132 
C 1.55874 -2.683901 0.795609 -3 0 -3 
C -0.795609 -3 -1.55874 -2.683901 -2.12132 -2.12132 
C -2.683901 -1.55874 -3 -0.795609 -3 0 
C -3 0.795609 -2.683901 1.55874 -2.12132 2.12132 
C -1.55874 2.683901 -0.795609 3 0 3 
z
" style="stroke: #f43f5e"/>
    </defs>
    <g clip-path="url(#pf8bbfdc2ff)">
     <use xlink:href="#m3443749631" x="55.162117" y="111.312031" style="fill: #f43f5e; stroke: #f43f5e"/>
     <use xlink:href="#m3443749631" x="69.561664" y="111.312031" style="fill: #f43f5e; stroke: #f43f5e"/>
     <use xlink:href="#m3443749631" x="83.96121" y="111.312031" style="fill: #f43f5e; stroke: #f43f5e"/>
     <use xlink:href="#m3443749631" x="98.360757" y="111.312031" style="fill: #f43f5e; stroke: #f43f5e"/>
     <use xlink:href="#m3443749631" x="112.760303" y="111.312031" style="fill: #f43f5e; stroke: #f43f5e"/>
     <use xlink:href="#m3443749631" x="127.15985" y="111.312031" style="fill: #f43f5e; stroke: #f43f5e"/>
     <use xlink:href="#m3443749631" x="141.559396" y="111.312031" style="fill: #f43f5e; stroke: #f43f5e"/>
     <use xlink:href="#m3443749631" x="155.958943" y="111.312031" style="fill: #f43f5e; stroke: #f43f5e"/>
     <use xlink:href="#m3443749631" x="170.358489" y="111.312031" style="fill: #f43f5e; stroke: #f43f5e"/>
     <use xlink:href="#m3443749631" x="184.758036" y="111.312031" style="fill: #f43f5e; stroke: #f43f5e"/>
     <use xlink:href="#m3443749631" x="199.157582" y="111.312031" style="fill: #f43f5e; stroke: #f43f5e"/>
    </g>
   </g>
   <g id="patch_3">
    <path d="M 47.962344 137.877656 
L 47.962344 35.6 
" style="fill: none; stroke: #000000; stroke-width: 0.8; stroke-linejoin: miter; stroke-linecap: square"/>
   </g>
   <g id="patch_4">
    <path d="M 206.357355 137.877656 
L 206.357355 35.6 
" style="fill: none; stroke: #000000; stroke-width: 0.8; stroke-linejoin: miter; stroke-linecap: square"/>
   </g>
   <g id="patch_5">
    <path d="M 47.962344 137.877656 
L 206.357355 137.877656 
" style="fill: none; stroke: #000000; stroke-width: 0.8; stroke-linejoin: miter; stroke-linecap: square"/>
   </g>
   <g id="patch_6">
    <path d="M 47.962344 35.6 
L 206.357355 35.6 
" style="fill: none; stroke: #000000; stroke-width: 0.8; stroke-linejoin: miter; stroke-linecap: square"/>
   </g>
   <g id="legend_1">
    <g id="patch_7">
     <path d="M 148.559855 78.001875 
L 200.757355 78.001875 
Q 202.357355 78.001875 202.357355 76.401875 
L 202.357355 41.2 
Q 202.357355 39.6 200.757355 39.6 
L 148.559855 39.6 
Q 146.959855 39.6 146.959855 41.2 
L 146.959855 76.401875 
Q 146.959855 78.001875 148.559855 78.001875 
z
" style="fill: #ffffff; opacity: 0.8; stroke: #cccccc; stroke-linejoin: miter"/>
    </g>
    <g id="line2d_22">
     <path d="M 150.159855 46.07875 
L 158.159855 46.07875 
L 166.159855 46.07875 
" style="fill: none; stroke: #fcc5cf; stroke-width: 1.5; stroke-linecap: square"/>
     <g>
      <use xlink:href="#m2eed5a410c" x="158.159855" y="46.07875" style="fill: #fcc5cf; stroke: #fcc5cf"/>
     </g>
    </g>
    <g id="text_12">
     <!-- [0, 2] -->
     <g transform="translate(172.559855 48.87875) scale(0.08 -0.08)">
      <defs>
       <path id="DejaVuSans-3e" d="M 550 4863 
L 1875 4863 
L 1875 4416 
L 1125 4416 
L 1125 -397 
L 1875 -397 
L 1875 -844 
L 550 -844 
L 550 4863 
z
" transform="scale(0.015625)"/>
       <path id="DejaVuSans-f" d="M 750 794 
L 1409 794 
L 1409 256 
L 897 -744 
L 494 -744 
L 750 256 
L 750 794 
z
" transform="scale(0.015625)"/>
       <path id="DejaVuSans-40" d="M 1947 4863 
L 1947 -844 
L 622 -844 
L 622 -397 
L 1369 -397 
L 1369 4416 
L 622 4416 
L 622 4863 
L 1947 4863 
z
" transform="scale(0.015625)"/>
      </defs>
      <use xlink:href="#DejaVuSans-3e"/>
      <use xlink:href="#DejaVuSans-13" transform="translate(39.015625 0)"/>
      <use xlink:href="#DejaVuSans-f" transform="translate(102.640625 0)"/>
      <use xlink:href="#DejaVuSans-3" transform="translate(134.421875 0)"/>
      <use xlink:href="#DejaVuSans-15" transform="translate(166.203125 0)"/>
      <use xlink:href="#DejaVuSans-40" transform="translate(229.828125 0)"/>
     </g>
    </g>
    <g id="line2d_23">
     <path d="M 150.159855 58.079375 
L 158.159855 58.079375 
L 166.159855 58.079375 
" style="fill: none; stroke: #f88296; stroke-width: 1.5; stroke-linecap: square"/>
     <g>
      <use xlink:href="#m95de3920a0" x="158.159855" y="58.079375" style="fill: #f88296; stroke: #f88296"/>
     </g>
    </g>
    <g id="text_13">
     <!-- [0, 5] -->
     <g transform="translate(172.559855 60.879375) scale(0.08 -0.08)">
      <use xlink:href="#DejaVuSans-3e"/>
      <use xlink:href="#DejaVuSans-13" transform="translate(39.015625 0)"/>
      <use xlink:href="#DejaVuSans-f" transform="translate(102.640625 0)"/>
      <use xlink:href="#DejaVuSans-3" transform="translate(134.421875 0)"/>
      <use xlink:href="#DejaVuSans-18" transform="translate(166.203125 0)"/>
      <use xlink:href="#DejaVuSans-40" transform="translate(229.828125 0)"/>
     </g>
    </g>
    <g id="line2d_24">
     <path d="M 150.159855 70.08 
L 158.159855 70.08 
L 166.159855 70.08 
" style="fill: none; stroke: #f43f5e; stroke-width: 1.5; stroke-linecap: square"/>
     <g>
      <use xlink:href="#m3443749631" x="158.159855" y="70.08" style="fill: #f43f5e; stroke: #f43f5e"/>
     </g>
    </g>
    <g id="text_14">
     <!-- [0, 10] -->
     <g transform="translate(172.559855 72.88) scale(0.08 -0.08)">
      <use xlink:href="#DejaVuSans-3e"/>
      <use xlink:href="#DejaVuSans-13" transform="translate(39.015625 0)"/>
      <use xlink:href="#DejaVuSans-f" transform="translate(102.640625 0)"/>
      <use xlink:href="#DejaVuSans-3" transform="translate(134.421875 0)"/>
      <use xlink:href="#DejaVuSans-14" transform="translate(166.203125 0)"/>
      <use xlink:href="#DejaVuSans-13" transform="translate(229.828125 0)"/>
      <use xlink:href="#DejaVuSans-40" transform="translate(293.453125 0)"/>
     </g>
    </g>
   </g>
  </g>
  <g id="axes_2">
   <g id="patch_8">
    <path d="M 258.562344 137.877656 
L 416.957355 137.877656 
L 416.957355 35.6 
L 258.562344 35.6 
z
" style="fill: #ffffff"/>
   </g>
   <g id="matplotlib.axis_3">
    <g id="xtick_6">
     <g id="line2d_25">
      <path d="M 265.762117 137.877656 
L 265.762117 35.6 
" clip-path="url(#pe13f654930)" style="fill: none; stroke: #b0b0b0; stroke-opacity: 0.3; stroke-width: 0.8; stroke-linecap: square"/>
     </g>
     <g id="line2d_26">
      <g>
       <use xlink:href="#m4b85679f79" x="265.762117" y="137.877656" style="stroke: #000000; stroke-width: 0.8"/>
      </g>
     </g>
     <g id="text_15">
      <!-- 0.0 -->
      <g transform="translate(257.810555 152.475313) scale(0.1 -0.1)">
       <use xlink:href="#DejaVuSans-13"/>
       <use xlink:href="#DejaVuSans-11" transform="translate(63.625 0)"/>
       <use xlink:href="#DejaVuSans-13" transform="translate(95.40625 0)"/>
      </g>
     </g>
    </g>
    <g id="xtick_7">
     <g id="line2d_27">
      <path d="M 301.760983 137.877656 
L 301.760983 35.6 
" clip-path="url(#pe13f654930)" style="fill: none; stroke: #b0b0b0; stroke-opacity: 0.3; stroke-width: 0.8; stroke-linecap: square"/>
     </g>
     <g id="line2d_28">
      <g>
       <use xlink:href="#m4b85679f79" x="301.760983" y="137.877656" style="stroke: #000000; stroke-width: 0.8"/>
      </g>
     </g>
     <g id="text_16">
      <!-- 2.5 -->
      <g transform="translate(293.809421 152.475313) scale(0.1 -0.1)">
       <use xlink:href="#DejaVuSans-15"/>
       <use xlink:href="#DejaVuSans-11" transform="translate(63.625 0)"/>
       <use xlink:href="#DejaVuSans-18" transform="translate(95.40625 0)"/>
      </g>
     </g>
    </g>
    <g id="xtick_8">
     <g id="line2d_29">
      <path d="M 337.75985 137.877656 
L 337.75985 35.6 
" clip-path="url(#pe13f654930)" style="fill: none; stroke: #b0b0b0; stroke-opacity: 0.3; stroke-width: 0.8; stroke-linecap: square"/>
     </g>
     <g id="line2d_30">
      <g>
       <use xlink:href="#m4b85679f79" x="337.75985" y="137.877656" style="stroke: #000000; stroke-width: 0.8"/>
      </g>
     </g>
     <g id="text_17">
      <!-- 5.0 -->
      <g transform="translate(329.808287 152.475313) scale(0.1 -0.1)">
       <use xlink:href="#DejaVuSans-18"/>
       <use xlink:href="#DejaVuSans-11" transform="translate(63.625 0)"/>
       <use xlink:href="#DejaVuSans-13" transform="translate(95.40625 0)"/>
      </g>
     </g>
    </g>
    <g id="xtick_9">
     <g id="line2d_31">
      <path d="M 373.758716 137.877656 
L 373.758716 35.6 
" clip-path="url(#pe13f654930)" style="fill: none; stroke: #b0b0b0; stroke-opacity: 0.3; stroke-width: 0.8; stroke-linecap: square"/>
     </g>
     <g id="line2d_32">
      <g>
       <use xlink:href="#m4b85679f79" x="373.758716" y="137.877656" style="stroke: #000000; stroke-width: 0.8"/>
      </g>
     </g>
     <g id="text_18">
      <!-- 7.5 -->
      <g transform="translate(365.807153 152.475313) scale(0.1 -0.1)">
       <use xlink:href="#DejaVuSans-1a"/>
       <use xlink:href="#DejaVuSans-11" transform="translate(63.625 0)"/>
       <use xlink:href="#DejaVuSans-18" transform="translate(95.40625 0)"/>
      </g>
     </g>
    </g>
    <g id="xtick_10">
     <g id="line2d_33">
      <path d="M 409.757582 137.877656 
L 409.757582 35.6 
" clip-path="url(#pe13f654930)" style="fill: none; stroke: #b0b0b0; stroke-opacity: 0.3; stroke-width: 0.8; stroke-linecap: square"/>
     </g>
     <g id="line2d_34">
      <g>
       <use xlink:href="#m4b85679f79" x="409.757582" y="137.877656" style="stroke: #000000; stroke-width: 0.8"/>
      </g>
     </g>
     <g id="text_19">
      <!-- 10.0 -->
      <g transform="translate(398.62477 152.475313) scale(0.1 -0.1)">
       <use xlink:href="#DejaVuSans-14"/>
       <use xlink:href="#DejaVuSans-13" transform="translate(63.625 0)"/>
       <use xlink:href="#DejaVuSans-11" transform="translate(127.25 0)"/>
       <use xlink:href="#DejaVuSans-13" transform="translate(159.03125 0)"/>
      </g>
     </g>
    </g>
    <g id="text_20">
     <!-- Value -->
     <g transform="translate(324.029381 166.476094) scale(0.1 -0.1)">
      <use xlink:href="#DejaVuSans-39"/>
      <use xlink:href="#DejaVuSans-44" transform="translate(60.640625 0)"/>
      <use xlink:href="#DejaVuSans-4f" transform="translate(121.921875 0)"/>
      <use xlink:href="#DejaVuSans-58" transform="translate(149.703125 0)"/>
      <use xlink:href="#DejaVuSans-48" transform="translate(213.078125 0)"/>
     </g>
    </g>
   </g>
   <g id="matplotlib.axis_4">
    <g id="ytick_5">
     <g id="line2d_35">
      <path d="M 258.562344 137.877656 
L 416.957355 137.877656 
" clip-path="url(#pe13f654930)" style="fill: none; stroke: #b0b0b0; stroke-opacity: 0.3; stroke-width: 0.8; stroke-linecap: square"/>
     </g>
     <g id="line2d_36">
      <g>
       <use xlink:href="#m704579a5e7" x="258.562344" y="137.877656" style="stroke: #000000; stroke-width: 0.8"/>
      </g>
     </g>
     <g id="text_21">
      <!-- 0.00 -->
      <g transform="translate(229.296719 141.676484) scale(0.1 -0.1)">
       <use xlink:href="#DejaVuSans-13"/>
       <use xlink:href="#DejaVuSans-11" transform="translate(63.625 0)"/>
       <use xlink:href="#DejaVuSans-13" transform="translate(95.40625 0)"/>
       <use xlink:href="#DejaVuSans-13" transform="translate(159.03125 0)"/>
      </g>
     </g>
    </g>
    <g id="ytick_6">
     <g id="line2d_37">
      <path d="M 258.562344 113.419956 
L 416.957355 113.419956 
" clip-path="url(#pe13f654930)" style="fill: none; stroke: #b0b0b0; stroke-opacity: 0.3; stroke-width: 0.8; stroke-linecap: square"/>
     </g>
     <g id="line2d_38">
      <g>
       <use xlink:href="#m704579a5e7" x="258.562344" y="113.419956" style="stroke: #000000; stroke-width: 0.8"/>
      </g>
     </g>
     <g id="text_22">
      <!-- 0.25 -->
      <g transform="translate(229.296719 117.218784) scale(0.1 -0.1)">
       <use xlink:href="#DejaVuSans-13"/>
       <use xlink:href="#DejaVuSans-11" transform="translate(63.625 0)"/>
       <use xlink:href="#DejaVuSans-15" transform="translate(95.40625 0)"/>
       <use xlink:href="#DejaVuSans-18" transform="translate(159.03125 0)"/>
      </g>
     </g>
    </g>
    <g id="ytick_7">
     <g id="line2d_39">
      <path d="M 258.562344 88.962255 
L 416.957355 88.962255 
" clip-path="url(#pe13f654930)" style="fill: none; stroke: #b0b0b0; stroke-opacity: 0.3; stroke-width: 0.8; stroke-linecap: square"/>
     </g>
     <g id="line2d_40">
      <g>
       <use xlink:href="#m704579a5e7" x="258.562344" y="88.962255" style="stroke: #000000; stroke-width: 0.8"/>
      </g>
     </g>
     <g id="text_23">
      <!-- 0.50 -->
      <g transform="translate(229.296719 92.761084) scale(0.1 -0.1)">
       <use xlink:href="#DejaVuSans-13"/>
       <use xlink:href="#DejaVuSans-11" transform="translate(63.625 0)"/>
       <use xlink:href="#DejaVuSans-18" transform="translate(95.40625 0)"/>
       <use xlink:href="#DejaVuSans-13" transform="translate(159.03125 0)"/>
      </g>
     </g>
    </g>
    <g id="ytick_8">
     <g id="line2d_41">
      <path d="M 258.562344 64.504555 
L 416.957355 64.504555 
" clip-path="url(#pe13f654930)" style="fill: none; stroke: #b0b0b0; stroke-opacity: 0.3; stroke-width: 0.8; stroke-linecap: square"/>
     </g>
     <g id="line2d_42">
      <g>
       <use xlink:href="#m704579a5e7" x="258.562344" y="64.504555" style="stroke: #000000; stroke-width: 0.8"/>
      </g>
     </g>
     <g id="text_24">
      <!-- 0.75 -->
      <g transform="translate(229.296719 68.303383) scale(0.1 -0.1)">
       <use xlink:href="#DejaVuSans-13"/>
       <use xlink:href="#DejaVuSans-11" transform="translate(63.625 0)"/>
       <use xlink:href="#DejaVuSans-1a" transform="translate(95.40625 0)"/>
       <use xlink:href="#DejaVuSans-18" transform="translate(159.03125 0)"/>
      </g>
     </g>
    </g>
    <g id="ytick_9">
     <g id="line2d_43">
      <path d="M 258.562344 40.046855 
L 416.957355 40.046855 
" clip-path="url(#pe13f654930)" style="fill: none; stroke: #b0b0b0; stroke-opacity: 0.3; stroke-width: 0.8; stroke-linecap: square"/>
     </g>
     <g id="line2d_44">
      <g>
       <use xlink:href="#m704579a5e7" x="258.562344" y="40.046855" style="stroke: #000000; stroke-width: 0.8"/>
      </g>
     </g>
     <g id="text_25">
      <!-- 1.00 -->
      <g transform="translate(229.296719 43.845683) scale(0.1 -0.1)">
       <use xlink:href="#DejaVuSans-14"/>
       <use xlink:href="#DejaVuSans-11" transform="translate(63.625 0)"/>
       <use xlink:href="#DejaVuSans-13" transform="translate(95.40625 0)"/>
       <use xlink:href="#DejaVuSans-13" transform="translate(159.03125 0)"/>
      </g>
     </g>
    </g>
    <g id="text_26">
     <!-- Cumulative Prob (CDF) -->
     <g transform="translate(222.894375 143.679453) rotate(-90) scale(0.1 -0.1)">
      <defs>
       <path id="DejaVuSans-26" d="M 4122 4306 
L 4122 3641 
Q 3803 3938 3442 4084 
Q 3081 4231 2675 4231 
Q 1875 4231 1450 3742 
Q 1025 3253 1025 2328 
Q 1025 1406 1450 917 
Q 1875 428 2675 428 
Q 3081 428 3442 575 
Q 3803 722 4122 1019 
L 4122 359 
Q 3791 134 3420 21 
Q 3050 -91 2638 -91 
Q 1578 -91 968 557 
Q 359 1206 359 2328 
Q 359 3453 968 4101 
Q 1578 4750 2638 4750 
Q 3056 4750 3426 4639 
Q 3797 4528 4122 4306 
z
" transform="scale(0.015625)"/>
       <path id="DejaVuSans-50" d="M 3328 2828 
Q 3544 3216 3844 3400 
Q 4144 3584 4550 3584 
Q 5097 3584 5394 3201 
Q 5691 2819 5691 2113 
L 5691 0 
L 5113 0 
L 5113 2094 
Q 5113 2597 4934 2840 
Q 4756 3084 4391 3084 
Q 3944 3084 3684 2787 
Q 3425 2491 3425 1978 
L 3425 0 
L 2847 0 
L 2847 2094 
Q 2847 2600 2669 2842 
Q 2491 3084 2119 3084 
Q 1678 3084 1418 2786 
Q 1159 2488 1159 1978 
L 1159 0 
L 581 0 
L 581 3500 
L 1159 3500 
L 1159 2956 
Q 1356 3278 1631 3431 
Q 1906 3584 2284 3584 
Q 2666 3584 2933 3390 
Q 3200 3197 3328 2828 
z
" transform="scale(0.015625)"/>
       <path id="DejaVuSans-59" d="M 191 3500 
L 800 3500 
L 1894 563 
L 2988 3500 
L 3597 3500 
L 2284 0 
L 1503 0 
L 191 3500 
z
" transform="scale(0.015625)"/>
       <path id="DejaVuSans-27" d="M 1259 4147 
L 1259 519 
L 2022 519 
Q 2988 519 3436 956 
Q 3884 1394 3884 2338 
Q 3884 3275 3436 3711 
Q 2988 4147 2022 4147 
L 1259 4147 
z
M 628 4666 
L 1925 4666 
Q 3281 4666 3915 4102 
Q 4550 3538 4550 2338 
Q 4550 1131 3912 565 
Q 3275 0 1925 0 
L 628 0 
L 628 4666 
z
" transform="scale(0.015625)"/>
      </defs>
      <use xlink:href="#DejaVuSans-26"/>
      <use xlink:href="#DejaVuSans-58" transform="translate(69.828125 0)"/>
      <use xlink:href="#DejaVuSans-50" transform="translate(133.203125 0)"/>
      <use xlink:href="#DejaVuSans-58" transform="translate(230.609375 0)"/>
      <use xlink:href="#DejaVuSans-4f" transform="translate(293.984375 0)"/>
      <use xlink:href="#DejaVuSans-44" transform="translate(321.765625 0)"/>
      <use xlink:href="#DejaVuSans-57" transform="translate(383.046875 0)"/>
      <use xlink:href="#DejaVuSans-4c" transform="translate(422.25 0)"/>
      <use xlink:href="#DejaVuSans-59" transform="translate(450.03125 0)"/>
      <use xlink:href="#DejaVuSans-48" transform="translate(509.21875 0)"/>
      <use xlink:href="#DejaVuSans-3" transform="translate(570.75 0)"/>
      <use xlink:href="#DejaVuSans-33" transform="translate(602.53125 0)"/>
      <use xlink:href="#DejaVuSans-55" transform="translate(661.078125 0)"/>
      <use xlink:href="#DejaVuSans-52" transform="translate(699.984375 0)"/>
      <use xlink:href="#DejaVuSans-45" transform="translate(761.171875 0)"/>
      <use xlink:href="#DejaVuSans-3" transform="translate(824.65625 0)"/>
      <use xlink:href="#DejaVuSans-b" transform="translate(856.4375 0)"/>
      <use xlink:href="#DejaVuSans-26" transform="translate(895.453125 0)"/>
      <use xlink:href="#DejaVuSans-27" transform="translate(965.28125 0)"/>
      <use xlink:href="#DejaVuSans-29" transform="translate(1042.28125 0)"/>
      <use xlink:href="#DejaVuSans-c" transform="translate(1099.796875 0)"/>
     </g>
    </g>
   </g>
   <g id="line2d_45">
    <path d="M 265.762117 105.267389 
L 280.161664 105.267389 
L 280.161664 72.657122 
L 294.56121 72.657122 
L 294.56121 40.046855 
L 308.960757 40.046855 
L 308.960757 40.046855 
L 323.360303 40.046855 
L 323.360303 40.046855 
L 337.75985 40.046855 
L 337.75985 40.046855 
L 352.159396 40.046855 
L 352.159396 40.046855 
L 366.558943 40.046855 
L 366.558943 40.046855 
L 380.958489 40.046855 
L 380.958489 40.046855 
L 395.358036 40.046855 
L 395.358036 40.046855 
L 409.757582 40.046855 
L 409.757582 40.046855 
" clip-path="url(#pe13f654930)" style="fill: none; stroke: #b7e4f8; stroke-width: 2; stroke-linecap: square"/>
   </g>
   <g id="line2d_46">
    <path d="M 265.762117 121.572523 
L 280.161664 121.572523 
L 280.161664 105.267389 
L 294.56121 105.267389 
L 294.56121 88.962255 
L 308.960757 88.962255 
L 308.960757 72.657122 
L 323.360303 72.657122 
L 323.360303 56.351988 
L 337.75985 56.351988 
L 337.75985 40.046855 
L 352.159396 40.046855 
L 352.159396 40.046855 
L 366.558943 40.046855 
L 366.558943 40.046855 
L 380.958489 40.046855 
L 380.958489 40.046855 
L 395.358036 40.046855 
L 395.358036 40.046855 
L 409.757582 40.046855 
L 409.757582 40.046855 
" clip-path="url(#pe13f654930)" style="fill: none; stroke: #62c4f1; stroke-width: 2; stroke-linecap: square"/>
   </g>
   <g id="line2d_47">
    <path d="M 265.762117 128.983947 
L 280.161664 128.983947 
L 280.161664 120.090238 
L 294.56121 120.090238 
L 294.56121 111.196529 
L 308.960757 111.196529 
L 308.960757 102.302819 
L 323.360303 102.302819 
L 323.360303 93.40911 
L 337.75985 93.40911 
L 337.75985 84.515401 
L 352.159396 84.515401 
L 352.159396 75.621692 
L 366.558943 75.621692 
L 366.558943 66.727982 
L 380.958489 66.727982 
L 380.958489 57.834273 
L 395.358036 57.834273 
L 395.358036 48.940564 
L 409.757582 48.940564 
L 409.757582 40.046855 
" clip-path="url(#pe13f654930)" style="fill: none; stroke: #0ea5e9; stroke-width: 2; stroke-linecap: square"/>
   </g>
   <g id="patch_9">
    <path d="M 258.562344 137.877656 
L 258.562344 35.6 
" style="fill: none; stroke: #000000; stroke-width: 0.8; stroke-linejoin: miter; stroke-linecap: square"/>
   </g>
   <g id="patch_10">
    <path d="M 416.957355 137.877656 
L 416.957355 35.6 
" style="fill: none; stroke: #000000; stroke-width: 0.8; stroke-linejoin: miter; stroke-linecap: square"/>
   </g>
   <g id="patch_11">
    <path d="M 258.562344 137.877656 
L 416.957355 137.877656 
" style="fill: none; stroke: #000000; stroke-width: 0.8; stroke-linejoin: miter; stroke-linecap: square"/>
   </g>
   <g id="patch_12">
    <path d="M 258.562344 35.6 
L 416.957355 35.6 
" style="fill: none; stroke: #000000; stroke-width: 0.8; stroke-linejoin: miter; stroke-linecap: square"/>
   </g>
  </g>
  <g id="text_27">
   <!-- Discrete Uniform Distribution (sweeping high) -->
   <g transform="translate(55.550156 14.237812) scale(0.14 -0.14)">
    <defs>
     <path id="DejaVuSans-56" d="M 2834 3397 
L 2834 2853 
Q 2591 2978 2328 3040 
Q 2066 3103 1784 3103 
Q 1356 3103 1142 2972 
Q 928 2841 928 2578 
Q 928 2378 1081 2264 
Q 1234 2150 1697 2047 
L 1894 2003 
Q 2506 1872 2764 1633 
Q 3022 1394 3022 966 
Q 3022 478 2636 193 
Q 2250 -91 1575 -91 
Q 1294 -91 989 -36 
Q 684 19 347 128 
L 347 722 
Q 666 556 975 473 
Q 1284 391 1588 391 
Q 1994 391 2212 530 
Q 2431 669 2431 922 
Q 2431 1156 2273 1281 
Q 2116 1406 1581 1522 
L 1381 1569 
Q 847 1681 609 1914 
Q 372 2147 372 2553 
Q 372 3047 722 3315 
Q 1072 3584 1716 3584 
Q 2034 3584 2315 3537 
Q 2597 3491 2834 3397 
z
" transform="scale(0.015625)"/>
     <path id="DejaVuSans-46" d="M 3122 3366 
L 3122 2828 
Q 2878 2963 2633 3030 
Q 2388 3097 2138 3097 
Q 1578 3097 1268 2742 
Q 959 2388 959 1747 
Q 959 1106 1268 751 
Q 1578 397 2138 397 
Q 2388 397 2633 464 
Q 2878 531 3122 666 
L 3122 134 
Q 2881 22 2623 -34 
Q 2366 -91 2075 -91 
Q 1284 -91 818 406 
Q 353 903 353 1747 
Q 353 2603 823 3093 
Q 1294 3584 2113 3584 
Q 2378 3584 2631 3529 
Q 2884 3475 3122 3366 
z
" transform="scale(0.015625)"/>
     <path id="DejaVuSans-38" d="M 556 4666 
L 1191 4666 
L 1191 1831 
Q 1191 1081 1462 751 
Q 1734 422 2344 422 
Q 2950 422 3222 751 
Q 3494 1081 3494 1831 
L 3494 4666 
L 4128 4666 
L 4128 1753 
Q 4128 841 3676 375 
Q 3225 -91 2344 -91 
Q 1459 -91 1007 375 
Q 556 841 556 1753 
L 556 4666 
z
" transform="scale(0.015625)"/>
     <path id="DejaVuSans-51" d="M 3513 2113 
L 3513 0 
L 2938 0 
L 2938 2094 
Q 2938 2591 2744 2837 
Q 2550 3084 2163 3084 
Q 1697 3084 1428 2787 
Q 1159 2491 1159 1978 
L 1159 0 
L 581 0 
L 581 3500 
L 1159 3500 
L 1159 2956 
Q 1366 3272 1645 3428 
Q 1925 3584 2291 3584 
Q 2894 3584 3203 3211 
Q 3513 2838 3513 2113 
z
" transform="scale(0.015625)"/>
     <path id="DejaVuSans-49" d="M 2375 4863 
L 2375 4384 
L 1825 4384 
Q 1516 4384 1395 4259 
Q 1275 4134 1275 3809 
L 1275 3500 
L 2222 3500 
L 2222 3053 
L 1275 3053 
L 1275 0 
L 697 0 
L 697 3053 
L 147 3053 
L 147 3500 
L 697 3500 
L 697 3744 
Q 697 4328 969 4595 
Q 1241 4863 1831 4863 
L 2375 4863 
z
" transform="scale(0.015625)"/>
     <path id="DejaVuSans-5a" d="M 269 3500 
L 844 3500 
L 1563 769 
L 2278 3500 
L 2956 3500 
L 3675 769 
L 4391 3500 
L 4966 3500 
L 4050 0 
L 3372 0 
L 2619 2869 
L 1863 0 
L 1184 0 
L 269 3500 
z
" transform="scale(0.015625)"/>
     <path id="DejaVuSans-53" d="M 1159 525 
L 1159 -1331 
L 581 -1331 
L 581 3500 
L 1159 3500 
L 1159 2969 
Q 1341 3281 1617 3432 
Q 1894 3584 2278 3584 
Q 2916 3584 3314 3078 
Q 3713 2572 3713 1747 
Q 3713 922 3314 415 
Q 2916 -91 2278 -91 
Q 1894 -91 1617 61 
Q 1341 213 1159 525 
z
M 3116 1747 
Q 3116 2381 2855 2742 
Q 2594 3103 2138 3103 
Q 1681 3103 1420 2742 
Q 1159 2381 1159 1747 
Q 1159 1113 1420 752 
Q 1681 391 2138 391 
Q 2594 391 2855 752 
Q 3116 1113 3116 1747 
z
" transform="scale(0.015625)"/>
     <path id="DejaVuSans-4a" d="M 2906 1791 
Q 2906 2416 2648 2759 
Q 2391 3103 1925 3103 
Q 1463 3103 1205 2759 
Q 947 2416 947 1791 
Q 947 1169 1205 825 
Q 1463 481 1925 481 
Q 2391 481 2648 825 
Q 2906 1169 2906 1791 
z
M 3481 434 
Q 3481 -459 3084 -895 
Q 2688 -1331 1869 -1331 
Q 1566 -1331 1297 -1286 
Q 1028 -1241 775 -1147 
L 775 -588 
Q 1028 -725 1275 -790 
Q 1522 -856 1778 -856 
Q 2344 -856 2625 -561 
Q 2906 -266 2906 331 
L 2906 616 
Q 2728 306 2450 153 
Q 2172 0 1784 0 
Q 1141 0 747 490 
Q 353 981 353 1791 
Q 353 2603 747 3093 
Q 1141 3584 1784 3584 
Q 2172 3584 2450 3431 
Q 2728 3278 2906 2969 
L 2906 3500 
L 3481 3500 
L 3481 434 
z
" transform="scale(0.015625)"/>
     <path id="DejaVuSans-4b" d="M 3513 2113 
L 3513 0 
L 2938 0 
L 2938 2094 
Q 2938 2591 2744 2837 
Q 2550 3084 2163 3084 
Q 1697 3084 1428 2787 
Q 1159 2491 1159 1978 
L 1159 0 
L 581 0 
L 581 4863 
L 1159 4863 
L 1159 2956 
Q 1366 3272 1645 3428 
Q 1925 3584 2291 3584 
Q 2894 3584 3203 3211 
Q 3513 2838 3513 2113 
z
" transform="scale(0.015625)"/>
    </defs>
    <use xlink:href="#DejaVuSans-27"/>
    <use xlink:href="#DejaVuSans-4c" transform="translate(77 0)"/>
    <use xlink:href="#DejaVuSans-56" transform="translate(104.78125 0)"/>
    <use xlink:href="#DejaVuSans-46" transform="translate(156.875 0)"/>
    <use xlink:href="#DejaVuSans-55" transform="translate(211.859375 0)"/>
    <use xlink:href="#DejaVuSans-48" transform="translate(250.765625 0)"/>
    <use xlink:href="#DejaVuSans-57" transform="translate(312.296875 0)"/>
    <use xlink:href="#DejaVuSans-48" transform="translate(351.5 0)"/>
    <use xlink:href="#DejaVuSans-3" transform="translate(413.03125 0)"/>
    <use xlink:href="#DejaVuSans-38" transform="translate(444.8125 0)"/>
    <use xlink:href="#DejaVuSans-51" transform="translate(518 0)"/>
    <use xlink:href="#DejaVuSans-4c" transform="translate(581.375 0)"/>
    <use xlink:href="#DejaVuSans-49" transform="translate(609.15625 0)"/>
    <use xlink:href="#DejaVuSans-52" transform="translate(644.359375 0)"/>
    <use xlink:href="#DejaVuSans-55" transform="translate(705.546875 0)"/>
    <use xlink:href="#DejaVuSans-50" transform="translate(744.90625 0)"/>
    <use xlink:href="#DejaVuSans-3" transform="translate(842.3125 0)"/>
    <use xlink:href="#DejaVuSans-27" transform="translate(874.09375 0)"/>
    <use xlink:href="#DejaVuSans-4c" transform="translate(951.09375 0)"/>
    <use xlink:href="#DejaVuSans-56" transform="translate(978.875 0)"/>
    <use xlink:href="#DejaVuSans-57" transform="translate(1030.96875 0)"/>
    <use xlink:href="#DejaVuSans-55" transform="translate(1070.171875 0)"/>
    <use xlink:href="#DejaVuSans-4c" transform="translate(1111.28125 0)"/>
    <use xlink:href="#DejaVuSans-45" transform="translate(1139.0625 0)"/>
    <use xlink:href="#DejaVuSans-58" transform="translate(1202.546875 0)"/>
    <use xlink:href="#DejaVuSans-57" transform="translate(1265.921875 0)"/>
    <use xlink:href="#DejaVuSans-4c" transform="translate(1305.125 0)"/>
    <use xlink:href="#DejaVuSans-52" transform="translate(1332.90625 0)"/>
    <use xlink:href="#DejaVuSans-51" transform="translate(1394.09375 0)"/>
    <use xlink:href="#DejaVuSans-3" transform="translate(1457.46875 0)"/>
    <use xlink:href="#DejaVuSans-b" transform="translate(1489.25 0)"/>
    <use xlink:href="#DejaVuSans-56" transform="translate(1528.265625 0)"/>
    <use xlink:href="#DejaVuSans-5a" transform="translate(1580.359375 0)"/>
    <use xlink:href="#DejaVuSans-48" transform="translate(1662.140625 0)"/>
    <use xlink:href="#DejaVuSans-48" transform="translate(1723.671875 0)"/>
    <use xlink:href="#DejaVuSans-53" transform="translate(1785.203125 0)"/>
    <use xlink:href="#DejaVuSans-4c" transform="translate(1848.6875 0)"/>
    <use xlink:href="#DejaVuSans-51" transform="translate(1876.46875 0)"/>
    <use xlink:href="#DejaVuSans-4a" transform="translate(1939.84375 0)"/>
    <use xlink:href="#DejaVuSans-3" transform="translate(2003.328125 0)"/>
    <use xlink:href="#DejaVuSans-4b" transform="translate(2035.109375 0)"/>
    <use xlink:href="#DejaVuSans-4c" transform="translate(2098.484375 0)"/>
    <use xlink:href="#DejaVuSans-4a" transform="translate(2126.265625 0)"/>
    <use xlink:href="#DejaVuSans-4b" transform="translate(2189.75 0)"/>
    <use xlink:href="#DejaVuSans-c" transform="translate(2253.125 0)"/>
   </g>
  </g>
 </g>
 <defs>
  <clipPath id="pf8bbfdc2ff">
   <rect x="47.962344" y="35.6" width="158.395012" height="102.277656"/>
  </clipPath>
  <clipPath id="pe13f654930">
   <rect x="258.562344" y="35.6" width="158.395012" height="102.277656"/>
  </clipPath>
 </defs>
</svg>
