<?xml version="1.0" encoding="utf-8" standalone="no"?>
<!DOCTYPE svg PUBLIC "-//W3C//DTD SVG 1.1//EN"
  "http://www.w3.org/Graphics/SVG/1.1/DTD/svg11.dtd">
<svg xmlns:xlink="http://www.w3.org/1999/xlink" width="432pt" height="180pt" viewBox="0 0 432 180" xmlns="http://www.w3.org/2000/svg" version="1.1">
 <metadata>
  <rdf:RDF xmlns:dc="http://purl.org/dc/elements/1.1/" xmlns:cc="http://creativecommons.org/ns#" xmlns:rdf="http://www.w3.org/1999/02/22-rdf-syntax-ns#">
   <cc:Work>
    <dc:type rdf:resource="http://purl.org/dc/dcmitype/StillImage"/>
    <dc:date>2026-06-15T17:02:51.478835</dc:date>
    <dc:format>image/svg+xml</dc:format>
    <dc:creator>
     <cc:Agent>
      <dc:title>Matplotlib v3.11.0, https://matplotlib.org/</dc:title>
     </cc:Agent>
    </dc:creator>
   </cc:Work>
  </rdf:RDF>
 </metadata>
 <defs>
  <style type="text/css">*{stroke-linejoin: round; stroke-linecap: butt}</style>
 </defs>
 <g id="figure_1">
  <g id="patch_1">
   <path d="M 0 180 
L 432 180 
L 432 0 
L 0 0 
z
" style="fill: #ffffff"/>
  </g>
  <g id="axes_1">
   <g id="patch_2">
    <path d="M 47.962344 137.877656 
L 210.6 137.877656 
L 210.6 35.6 
L 47.962344 35.6 
z
" style="fill: #ffffff"/>
   </g>
   <g id="matplotlib.axis_1">
    <g id="xtick_1">
     <g id="line2d_1">
      <path d="M 55.354964 137.877656 
L 55.354964 35.6 
" clip-path="url(#p82caa28b91)" style="fill: none; stroke: #b0b0b0; stroke-opacity: 0.3; stroke-width: 0.8; stroke-linecap: square"/>
     </g>
     <g id="line2d_2">
      <defs>
       <path id="m41a69ff684" d="M 0 0 
L 0 3.5 
" style="stroke: #000000; stroke-width: 0.8"/>
      </defs>
      <g>
       <use xlink:href="#m41a69ff684" x="55.354964" y="137.877656" style="stroke: #000000; stroke-width: 0.8"/>
      </g>
     </g>
     <g id="text_1">
      <!-- 0 -->
      <g transform="translate(52.173714 152.475313) scale(0.1 -0.1)">
       <defs>
        <path id="DejaVuSans-13" d="M 2034 4250 
Q 1547 4250 1301 3770 
Q 1056 3291 1056 2328 
Q 1056 1369 1301 889 
Q 1547 409 2034 409 
Q 2525 409 2770 889 
Q 3016 1369 3016 2328 
Q 3016 3291 2770 3770 
Q 2525 4250 2034 4250 
z
M 2034 4750 
Q 2819 4750 3233 4129 
Q 3647 3509 3647 2328 
Q 3647 1150 3233 529 
Q 2819 -91 2034 -91 
Q 1250 -91 836 529 
Q 422 1150 422 2328 
Q 422 3509 836 4129 
Q 1250 4750 2034 4750 
z
" transform="scale(0.015625)"/>
       </defs>
       <use xlink:href="#DejaVuSans-13"/>
      </g>
     </g>
    </g>
    <g id="xtick_2">
     <g id="line2d_3">
      <path d="M 90.55792 137.877656 
L 90.55792 35.6 
" clip-path="url(#p82caa28b91)" style="fill: none; stroke: #b0b0b0; stroke-opacity: 0.3; stroke-width: 0.8; stroke-linecap: square"/>
     </g>
     <g id="line2d_4">
      <g>
       <use xlink:href="#m41a69ff684" x="90.55792" y="137.877656" style="stroke: #000000; stroke-width: 0.8"/>
      </g>
     </g>
     <g id="text_2">
      <!-- 5 -->
      <g transform="translate(87.37667 152.475313) scale(0.1 -0.1)">
       <defs>
        <path id="DejaVuSans-18" d="M 691 4666 
L 3169 4666 
L 3169 4134 
L 1269 4134 
L 1269 2991 
Q 1406 3038 1543 3061 
Q 1681 3084 1819 3084 
Q 2600 3084 3056 2656 
Q 3513 2228 3513 1497 
Q 3513 744 3044 326 
Q 2575 -91 1722 -91 
Q 1428 -91 1123 -41 
Q 819 9 494 109 
L 494 744 
Q 775 591 1075 516 
Q 1375 441 1709 441 
Q 2250 441 2565 725 
Q 2881 1009 2881 1497 
Q 2881 1984 2565 2268 
Q 2250 2553 1709 2553 
Q 1456 2553 1204 2497 
Q 953 2441 691 2322 
L 691 4666 
z
" transform="scale(0.015625)"/>
       </defs>
       <use xlink:href="#DejaVuSans-18"/>
      </g>
     </g>
    </g>
    <g id="xtick_3">
     <g id="line2d_5">
      <path d="M 125.760876 137.877656 
L 125.760876 35.6 
" clip-path="url(#p82caa28b91)" style="fill: none; stroke: #b0b0b0; stroke-opacity: 0.3; stroke-width: 0.8; stroke-linecap: square"/>
     </g>
     <g id="line2d_6">
      <g>
       <use xlink:href="#m41a69ff684" x="125.760876" y="137.877656" style="stroke: #000000; stroke-width: 0.8"/>
      </g>
     </g>
     <g id="text_3">
      <!-- 10 -->
      <g transform="translate(119.398376 152.475313) scale(0.1 -0.1)">
       <defs>
        <path id="DejaVuSans-14" d="M 794 531 
L 1825 531 
L 1825 4091 
L 703 3866 
L 703 4441 
L 1819 4666 
L 2450 4666 
L 2450 531 
L 3481 531 
L 3481 0 
L 794 0 
L 794 531 
z
" transform="scale(0.015625)"/>
       </defs>
       <use xlink:href="#DejaVuSans-14"/>
       <use xlink:href="#DejaVuSans-13" transform="translate(63.625 0)"/>
      </g>
     </g>
    </g>
    <g id="xtick_4">
     <g id="line2d_7">
      <path d="M 160.963832 137.877656 
L 160.963832 35.6 
" clip-path="url(#p82caa28b91)" style="fill: none; stroke: #b0b0b0; stroke-opacity: 0.3; stroke-width: 0.8; stroke-linecap: square"/>
     </g>
     <g id="line2d_8">
      <g>
       <use xlink:href="#m41a69ff684" x="160.963832" y="137.877656" style="stroke: #000000; stroke-width: 0.8"/>
      </g>
     </g>
     <g id="text_4">
      <!-- 15 -->
      <g transform="translate(154.601332 152.475313) scale(0.1 -0.1)">
       <use xlink:href="#DejaVuSans-14"/>
       <use xlink:href="#DejaVuSans-18" transform="translate(63.625 0)"/>
      </g>
     </g>
    </g>
    <g id="xtick_5">
     <g id="line2d_9">
      <path d="M 196.166788 137.877656 
L 196.166788 35.6 
" clip-path="url(#p82caa28b91)" style="fill: none; stroke: #b0b0b0; stroke-opacity: 0.3; stroke-width: 0.8; stroke-linecap: square"/>
     </g>
     <g id="line2d_10">
      <g>
       <use xlink:href="#m41a69ff684" x="196.166788" y="137.877656" style="stroke: #000000; stroke-width: 0.8"/>
      </g>
     </g>
     <g id="text_5">
      <!-- 20 -->
      <g transform="translate(189.804288 152.475313) scale(0.1 -0.1)">
       <defs>
        <path id="DejaVuSans-15" d="M 1228 531 
L 3431 531 
L 3431 0 
L 469 0 
L 469 531 
Q 828 903 1448 1529 
Q 2069 2156 2228 2338 
Q 2531 2678 2651 2914 
Q 2772 3150 2772 3378 
Q 2772 3750 2511 3984 
Q 2250 4219 1831 4219 
Q 1534 4219 1204 4116 
Q 875 4013 500 3803 
L 500 4441 
Q 881 4594 1212 4672 
Q 1544 4750 1819 4750 
Q 2544 4750 2975 4387 
Q 3406 4025 3406 3419 
Q 3406 3131 3298 2873 
Q 3191 2616 2906 2266 
Q 2828 2175 2409 1742 
Q 1991 1309 1228 531 
z
" transform="scale(0.015625)"/>
       </defs>
       <use xlink:href="#DejaVuSans-15"/>
       <use xlink:href="#DejaVuSans-13" transform="translate(63.625 0)"/>
      </g>
     </g>
    </g>
    <g id="text_6">
     <!-- Value -->
     <g transform="translate(115.550703 166.476094) scale(0.1 -0.1)">
      <defs>
       <path id="DejaVuSans-39" d="M 1831 0 
L 50 4666 
L 709 4666 
L 2188 738 
L 3669 4666 
L 4325 4666 
L 2547 0 
L 1831 0 
z
" transform="scale(0.015625)"/>
       <path id="DejaVuSans-44" d="M 2194 1759 
Q 1497 1759 1228 1600 
Q 959 1441 959 1056 
Q 959 750 1161 570 
Q 1363 391 1709 391 
Q 2188 391 2477 730 
Q 2766 1069 2766 1631 
L 2766 1759 
L 2194 1759 
z
M 3341 1997 
L 3341 0 
L 2766 0 
L 2766 531 
Q 2569 213 2275 61 
Q 1981 -91 1556 -91 
Q 1019 -91 701 211 
Q 384 513 384 1019 
Q 384 1609 779 1909 
Q 1175 2209 1959 2209 
L 2766 2209 
L 2766 2266 
Q 2766 2663 2505 2880 
Q 2244 3097 1772 3097 
Q 1472 3097 1187 3025 
Q 903 2953 641 2809 
L 641 3341 
Q 956 3463 1253 3523 
Q 1550 3584 1831 3584 
Q 2591 3584 2966 3190 
Q 3341 2797 3341 1997 
z
" transform="scale(0.015625)"/>
       <path id="DejaVuSans-4f" d="M 603 4863 
L 1178 4863 
L 1178 0 
L 603 0 
L 603 4863 
z
" transform="scale(0.015625)"/>
       <path id="DejaVuSans-58" d="M 544 1381 
L 544 3500 
L 1119 3500 
L 1119 1403 
Q 1119 906 1312 657 
Q 1506 409 1894 409 
Q 2359 409 2629 706 
Q 2900 1003 2900 1516 
L 2900 3500 
L 3475 3500 
L 3475 0 
L 2900 0 
L 2900 538 
Q 2691 219 2414 64 
Q 2138 -91 1772 -91 
Q 1169 -91 856 284 
Q 544 659 544 1381 
z
M 1991 3584 
L 1991 3584 
z
" transform="scale(0.015625)"/>
       <path id="DejaVuSans-48" d="M 3597 1894 
L 3597 1613 
L 953 1613 
Q 991 1019 1311 708 
Q 1631 397 2203 397 
Q 2534 397 2845 478 
Q 3156 559 3463 722 
L 3463 178 
Q 3153 47 2828 -22 
Q 2503 -91 2169 -91 
Q 1331 -91 842 396 
Q 353 884 353 1716 
Q 353 2575 817 3079 
Q 1281 3584 2069 3584 
Q 2775 3584 3186 3129 
Q 3597 2675 3597 1894 
z
M 3022 2063 
Q 3016 2534 2758 2815 
Q 2500 3097 2075 3097 
Q 1594 3097 1305 2825 
Q 1016 2553 972 2059 
L 3022 2063 
z
" transform="scale(0.015625)"/>
      </defs>
      <use xlink:href="#DejaVuSans-39"/>
      <use xlink:href="#DejaVuSans-44" transform="translate(60.640625 0)"/>
      <use xlink:href="#DejaVuSans-4f" transform="translate(121.921875 0)"/>
      <use xlink:href="#DejaVuSans-58" transform="translate(149.703125 0)"/>
      <use xlink:href="#DejaVuSans-48" transform="translate(213.078125 0)"/>
     </g>
    </g>
   </g>
   <g id="matplotlib.axis_2">
    <g id="ytick_1">
     <g id="line2d_11">
      <path d="M 47.962344 137.877656 
L 210.6 137.877656 
" clip-path="url(#p82caa28b91)" style="fill: none; stroke: #b0b0b0; stroke-opacity: 0.3; stroke-width: 0.8; stroke-linecap: square"/>
     </g>
     <g id="line2d_12">
      <defs>
       <path id="m93d38c2b26" d="M 0 0 
L -3.5 0 
" style="stroke: #000000; stroke-width: 0.8"/>
      </defs>
      <g>
       <use xlink:href="#m93d38c2b26" x="47.962344" y="137.877656" style="stroke: #000000; stroke-width: 0.8"/>
      </g>
     </g>
     <g id="text_7">
      <!-- 0.0 -->
      <g transform="translate(25.059219 141.676484) scale(0.1 -0.1)">
       <defs>
        <path id="DejaVuSans-11" d="M 684 794 
L 1344 794 
L 1344 0 
L 684 0 
L 684 794 
z
" transform="scale(0.015625)"/>
       </defs>
       <use xlink:href="#DejaVuSans-13"/>
       <use xlink:href="#DejaVuSans-11" transform="translate(63.625 0)"/>
       <use xlink:href="#DejaVuSans-13" transform="translate(95.40625 0)"/>
      </g>
     </g>
    </g>
    <g id="ytick_2">
     <g id="line2d_13">
      <path d="M 47.962344 111.399609 
L 210.6 111.399609 
" clip-path="url(#p82caa28b91)" style="fill: none; stroke: #b0b0b0; stroke-opacity: 0.3; stroke-width: 0.8; stroke-linecap: square"/>
     </g>
     <g id="line2d_14">
      <g>
       <use xlink:href="#m93d38c2b26" x="47.962344" y="111.399609" style="stroke: #000000; stroke-width: 0.8"/>
      </g>
     </g>
     <g id="text_8">
      <!-- 0.1 -->
      <g transform="translate(25.059219 115.198437) scale(0.1 -0.1)">
       <use xlink:href="#DejaVuSans-13"/>
       <use xlink:href="#DejaVuSans-11" transform="translate(63.625 0)"/>
       <use xlink:href="#DejaVuSans-14" transform="translate(95.40625 0)"/>
      </g>
     </g>
    </g>
    <g id="ytick_3">
     <g id="line2d_15">
      <path d="M 47.962344 84.921562 
L 210.6 84.921562 
" clip-path="url(#p82caa28b91)" style="fill: none; stroke: #b0b0b0; stroke-opacity: 0.3; stroke-width: 0.8; stroke-linecap: square"/>
     </g>
     <g id="line2d_16">
      <g>
       <use xlink:href="#m93d38c2b26" x="47.962344" y="84.921562" style="stroke: #000000; stroke-width: 0.8"/>
      </g>
     </g>
     <g id="text_9">
      <!-- 0.2 -->
      <g transform="translate(25.059219 88.72039) scale(0.1 -0.1)">
       <use xlink:href="#DejaVuSans-13"/>
       <use xlink:href="#DejaVuSans-11" transform="translate(63.625 0)"/>
       <use xlink:href="#DejaVuSans-15" transform="translate(95.40625 0)"/>
      </g>
     </g>
    </g>
    <g id="ytick_4">
     <g id="line2d_17">
      <path d="M 47.962344 58.443515 
L 210.6 58.443515 
" clip-path="url(#p82caa28b91)" style="fill: none; stroke: #b0b0b0; stroke-opacity: 0.3; stroke-width: 0.8; stroke-linecap: square"/>
     </g>
     <g id="line2d_18">
      <g>
       <use xlink:href="#m93d38c2b26" x="47.962344" y="58.443515" style="stroke: #000000; stroke-width: 0.8"/>
      </g>
     </g>
     <g id="text_10">
      <!-- 0.3 -->
      <g transform="translate(25.059219 62.242343) scale(0.1 -0.1)">
       <defs>
        <path id="DejaVuSans-16" d="M 2597 2516 
Q 3050 2419 3304 2112 
Q 3559 1806 3559 1356 
Q 3559 666 3084 287 
Q 2609 -91 1734 -91 
Q 1441 -91 1130 -33 
Q 819 25 488 141 
L 488 750 
Q 750 597 1062 519 
Q 1375 441 1716 441 
Q 2309 441 2620 675 
Q 2931 909 2931 1356 
Q 2931 1769 2642 2001 
Q 2353 2234 1838 2234 
L 1294 2234 
L 1294 2753 
L 1863 2753 
Q 2328 2753 2575 2939 
Q 2822 3125 2822 3475 
Q 2822 3834 2567 4026 
Q 2313 4219 1838 4219 
Q 1578 4219 1281 4162 
Q 984 4106 628 3988 
L 628 4550 
Q 988 4650 1302 4700 
Q 1616 4750 1894 4750 
Q 2613 4750 3031 4423 
Q 3450 4097 3450 3541 
Q 3450 3153 3228 2886 
Q 3006 2619 2597 2516 
z
" transform="scale(0.015625)"/>
       </defs>
       <use xlink:href="#DejaVuSans-13"/>
       <use xlink:href="#DejaVuSans-11" transform="translate(63.625 0)"/>
       <use xlink:href="#DejaVuSans-16" transform="translate(95.40625 0)"/>
      </g>
     </g>
    </g>
    <g id="text_11">
     <!-- Probability (PMF) -->
     <g transform="translate(18.656875 128.865391) rotate(-90) scale(0.1 -0.1)">
      <defs>
       <path id="DejaVuSans-33" d="M 1259 4147 
L 1259 2394 
L 2053 2394 
Q 2494 2394 2734 2622 
Q 2975 2850 2975 3272 
Q 2975 3691 2734 3919 
Q 2494 4147 2053 4147 
L 1259 4147 
z
M 628 4666 
L 2053 4666 
Q 2838 4666 3239 4311 
Q 3641 3956 3641 3272 
Q 3641 2581 3239 2228 
Q 2838 1875 2053 1875 
L 1259 1875 
L 1259 0 
L 628 0 
L 628 4666 
z
" transform="scale(0.015625)"/>
       <path id="DejaVuSans-55" d="M 2631 2963 
Q 2534 3019 2420 3045 
Q 2306 3072 2169 3072 
Q 1681 3072 1420 2755 
Q 1159 2438 1159 1844 
L 1159 0 
L 581 0 
L 581 3500 
L 1159 3500 
L 1159 2956 
Q 1341 3275 1631 3429 
Q 1922 3584 2338 3584 
Q 2397 3584 2469 3576 
Q 2541 3569 2628 3553 
L 2631 2963 
z
" transform="scale(0.015625)"/>
       <path id="DejaVuSans-52" d="M 1959 3097 
Q 1497 3097 1228 2736 
Q 959 2375 959 1747 
Q 959 1119 1226 758 
Q 1494 397 1959 397 
Q 2419 397 2687 759 
Q 2956 1122 2956 1747 
Q 2956 2369 2687 2733 
Q 2419 3097 1959 3097 
z
M 1959 3584 
Q 2709 3584 3137 3096 
Q 3566 2609 3566 1747 
Q 3566 888 3137 398 
Q 2709 -91 1959 -91 
Q 1206 -91 779 398 
Q 353 888 353 1747 
Q 353 2609 779 3096 
Q 1206 3584 1959 3584 
z
" transform="scale(0.015625)"/>
       <path id="DejaVuSans-45" d="M 3116 1747 
Q 3116 2381 2855 2742 
Q 2594 3103 2138 3103 
Q 1681 3103 1420 2742 
Q 1159 2381 1159 1747 
Q 1159 1113 1420 752 
Q 1681 391 2138 391 
Q 2594 391 2855 752 
Q 3116 1113 3116 1747 
z
M 1159 2969 
Q 1341 3281 1617 3432 
Q 1894 3584 2278 3584 
Q 2916 3584 3314 3078 
Q 3713 2572 3713 1747 
Q 3713 922 3314 415 
Q 2916 -91 2278 -91 
Q 1894 -91 1617 61 
Q 1341 213 1159 525 
L 1159 0 
L 581 0 
L 581 4863 
L 1159 4863 
L 1159 2969 
z
" transform="scale(0.015625)"/>
       <path id="DejaVuSans-4c" d="M 603 3500 
L 1178 3500 
L 1178 0 
L 603 0 
L 603 3500 
z
M 603 4863 
L 1178 4863 
L 1178 4134 
L 603 4134 
L 603 4863 
z
" transform="scale(0.015625)"/>
       <path id="DejaVuSans-57" d="M 1172 4494 
L 1172 3500 
L 2356 3500 
L 2356 3053 
L 1172 3053 
L 1172 1153 
Q 1172 725 1289 603 
Q 1406 481 1766 481 
L 2356 481 
L 2356 0 
L 1766 0 
Q 1100 0 847 248 
Q 594 497 594 1153 
L 594 3053 
L 172 3053 
L 172 3500 
L 594 3500 
L 594 4494 
L 1172 4494 
z
" transform="scale(0.015625)"/>
       <path id="DejaVuSans-5c" d="M 2059 -325 
Q 1816 -950 1584 -1140 
Q 1353 -1331 966 -1331 
L 506 -1331 
L 506 -850 
L 844 -850 
Q 1081 -850 1212 -737 
Q 1344 -625 1503 -206 
L 1606 56 
L 191 3500 
L 800 3500 
L 1894 763 
L 2988 3500 
L 3597 3500 
L 2059 -325 
z
" transform="scale(0.015625)"/>
       <path id="DejaVuSans-3" transform="scale(0.015625)"/>
       <path id="DejaVuSans-b" d="M 1984 4856 
Q 1566 4138 1362 3434 
Q 1159 2731 1159 2009 
Q 1159 1288 1364 580 
Q 1569 -128 1984 -844 
L 1484 -844 
Q 1016 -109 783 600 
Q 550 1309 550 2009 
Q 550 2706 781 3412 
Q 1013 4119 1484 4856 
L 1984 4856 
z
" transform="scale(0.015625)"/>
       <path id="DejaVuSans-30" d="M 628 4666 
L 1569 4666 
L 2759 1491 
L 3956 4666 
L 4897 4666 
L 4897 0 
L 4281 0 
L 4281 4097 
L 3078 897 
L 2444 897 
L 1241 4097 
L 1241 0 
L 628 0 
L 628 4666 
z
" transform="scale(0.015625)"/>
       <path id="DejaVuSans-29" d="M 628 4666 
L 3309 4666 
L 3309 4134 
L 1259 4134 
L 1259 2759 
L 3109 2759 
L 3109 2228 
L 1259 2228 
L 1259 0 
L 628 0 
L 628 4666 
z
" transform="scale(0.015625)"/>
       <path id="DejaVuSans-c" d="M 513 4856 
L 1013 4856 
Q 1481 4119 1714 3412 
Q 1947 2706 1947 2009 
Q 1947 1309 1714 600 
Q 1481 -109 1013 -844 
L 513 -844 
Q 928 -128 1133 580 
Q 1338 1288 1338 2009 
Q 1338 2731 1133 3434 
Q 928 4138 513 4856 
z
" transform="scale(0.015625)"/>
      </defs>
      <use xlink:href="#DejaVuSans-33"/>
      <use xlink:href="#DejaVuSans-55" transform="translate(58.546875 0)"/>
      <use xlink:href="#DejaVuSans-52" transform="translate(97.453125 0)"/>
      <use xlink:href="#DejaVuSans-45" transform="translate(158.640625 0)"/>
      <use xlink:href="#DejaVuSans-44" transform="translate(222.125 0)"/>
      <use xlink:href="#DejaVuSans-45" transform="translate(283.40625 0)"/>
      <use xlink:href="#DejaVuSans-4c" transform="translate(346.890625 0)"/>
      <use xlink:href="#DejaVuSans-4f" transform="translate(374.671875 0)"/>
      <use xlink:href="#DejaVuSans-4c" transform="translate(402.453125 0)"/>
      <use xlink:href="#DejaVuSans-57" transform="translate(430.234375 0)"/>
      <use xlink:href="#DejaVuSans-5c" transform="translate(469.4375 0)"/>
      <use xlink:href="#DejaVuSans-3" transform="translate(528.625 0)"/>
      <use xlink:href="#DejaVuSans-b" transform="translate(560.40625 0)"/>
      <use xlink:href="#DejaVuSans-33" transform="translate(599.421875 0)"/>
      <use xlink:href="#DejaVuSans-30" transform="translate(659.71875 0)"/>
      <use xlink:href="#DejaVuSans-29" transform="translate(746 0)"/>
      <use xlink:href="#DejaVuSans-c" transform="translate(803.515625 0)"/>
     </g>
    </g>
   </g>
   <g id="line2d_19">
    <path d="M 55.354964 40.470365 
L 62.395556 40.470365 
L 69.436147 89.17401 
L 76.476738 121.643108 
L 83.517329 133.819019 
L 90.55792 137.065929 
L 97.598512 137.742368 
L 104.639103 137.858329 
L 111.679694 137.87524 
L 118.720285 137.877388 
L 125.760876 137.877629 
L 132.801467 137.877654 
L 139.842059 137.877656 
L 146.88265 137.877656 
L 153.923241 137.877656 
L 160.963832 137.877656 
L 168.004423 137.877656 
L 175.045015 137.877656 
L 182.085606 137.877656 
L 189.126197 137.877656 
L 196.166788 137.877656 
L 203.207379 137.877656 
" clip-path="url(#p82caa28b91)" style="fill: none; stroke: #fcc5cf; stroke-width: 1.5; stroke-linecap: square"/>
    <defs>
     <path id="md8b22e1eb4" d="M 0 3 
C 0.795609 3 1.55874 2.683901 2.12132 2.12132 
C 2.683901 1.55874 3 0.795609 3 0 
C 3 -0.795609 2.683901 -1.55874 2.12132 -2.12132 
C 1.55874 -2.683901 0.795609 -3 0 -3 
C -0.795609 -3 -1.55874 -2.683901 -2.12132 -2.12132 
C -2.683901 -1.55874 -3 -0.795609 -3 0 
C -3 0.795609 -2.683901 1.55874 -2.12132 2.12132 
C -1.55874 2.683901 -0.795609 3 0 3 
z
" style="stroke: #fcc5cf"/>
    </defs>
    <g clip-path="url(#p82caa28b91)">
     <use xlink:href="#md8b22e1eb4" x="55.354964" y="40.470365" style="fill: #fcc5cf; stroke: #fcc5cf"/>
     <use xlink:href="#md8b22e1eb4" x="62.395556" y="40.470365" style="fill: #fcc5cf; stroke: #fcc5cf"/>
     <use xlink:href="#md8b22e1eb4" x="69.436147" y="89.17401" style="fill: #fcc5cf; stroke: #fcc5cf"/>
     <use xlink:href="#md8b22e1eb4" x="76.476738" y="121.643108" style="fill: #fcc5cf; stroke: #fcc5cf"/>
     <use xlink:href="#md8b22e1eb4" x="83.517329" y="133.819019" style="fill: #fcc5cf; stroke: #fcc5cf"/>
     <use xlink:href="#md8b22e1eb4" x="90.55792" y="137.065929" style="fill: #fcc5cf; stroke: #fcc5cf"/>
     <use xlink:href="#md8b22e1eb4" x="97.598512" y="137.742368" style="fill: #fcc5cf; stroke: #fcc5cf"/>
     <use xlink:href="#md8b22e1eb4" x="104.639103" y="137.858329" style="fill: #fcc5cf; stroke: #fcc5cf"/>
     <use xlink:href="#md8b22e1eb4" x="111.679694" y="137.87524" style="fill: #fcc5cf; stroke: #fcc5cf"/>
     <use xlink:href="#md8b22e1eb4" x="118.720285" y="137.877388" style="fill: #fcc5cf; stroke: #fcc5cf"/>
     <use xlink:href="#md8b22e1eb4" x="125.760876" y="137.877629" style="fill: #fcc5cf; stroke: #fcc5cf"/>
     <use xlink:href="#md8b22e1eb4" x="132.801467" y="137.877654" style="fill: #fcc5cf; stroke: #fcc5cf"/>
     <use xlink:href="#md8b22e1eb4" x="139.842059" y="137.877656" style="fill: #fcc5cf; stroke: #fcc5cf"/>
     <use xlink:href="#md8b22e1eb4" x="146.88265" y="137.877656" style="fill: #fcc5cf; stroke: #fcc5cf"/>
     <use xlink:href="#md8b22e1eb4" x="153.923241" y="137.877656" style="fill: #fcc5cf; stroke: #fcc5cf"/>
     <use xlink:href="#md8b22e1eb4" x="160.963832" y="137.877656" style="fill: #fcc5cf; stroke: #fcc5cf"/>
     <use xlink:href="#md8b22e1eb4" x="168.004423" y="137.877656" style="fill: #fcc5cf; stroke: #fcc5cf"/>
     <use xlink:href="#md8b22e1eb4" x="175.045015" y="137.877656" style="fill: #fcc5cf; stroke: #fcc5cf"/>
     <use xlink:href="#md8b22e1eb4" x="182.085606" y="137.877656" style="fill: #fcc5cf; stroke: #fcc5cf"/>
     <use xlink:href="#md8b22e1eb4" x="189.126197" y="137.877656" style="fill: #fcc5cf; stroke: #fcc5cf"/>
     <use xlink:href="#md8b22e1eb4" x="196.166788" y="137.877656" style="fill: #fcc5cf; stroke: #fcc5cf"/>
     <use xlink:href="#md8b22e1eb4" x="203.207379" y="137.877656" style="fill: #fcc5cf; stroke: #fcc5cf"/>
    </g>
   </g>
   <g id="line2d_20">
    <path d="M 55.354964 133.028033 
L 62.395556 118.479162 
L 69.436147 99.080668 
L 76.476738 86.148339 
L 83.517329 86.148339 
L 90.55792 96.494202 
L 97.598512 110.288687 
L 104.639103 122.112531 
L 111.679694 129.995094 
L 118.720285 134.374295 
L 125.760876 136.476312 
L 132.801467 137.368076 
L 139.842059 137.707796 
L 146.88265 137.825392 
L 153.923241 137.862724 
L 160.963832 137.873674 
L 168.004423 137.876661 
L 175.045015 137.877422 
L 182.085606 137.877604 
L 189.126197 137.877645 
L 196.166788 137.877654 
L 203.207379 137.877656 
" clip-path="url(#p82caa28b91)" style="fill: none; stroke: #f88296; stroke-width: 1.5; stroke-linecap: square"/>
    <defs>
     <path id="md01db8c09d" d="M 0 3 
C 0.795609 3 1.55874 2.683901 2.12132 2.12132 
C 2.683901 1.55874 3 0.795609 3 0 
C 3 -0.795609 2.683901 -1.55874 2.12132 -2.12132 
C 1.55874 -2.683901 0.795609 -3 0 -3 
C -0.795609 -3 -1.55874 -2.683901 -2.12132 -2.12132 
C -2.683901 -1.55874 -3 -0.795609 -3 0 
C -3 0.795609 -2.683901 1.55874 -2.12132 2.12132 
C -1.55874 2.683901 -0.795609 3 0 3 
z
" style="stroke: #f88296"/>
    </defs>
    <g clip-path="url(#p82caa28b91)">
     <use xlink:href="#md01db8c09d" x="55.354964" y="133.028033" style="fill: #f88296; stroke: #f88296"/>
     <use xlink:href="#md01db8c09d" x="62.395556" y="118.479162" style="fill: #f88296; stroke: #f88296"/>
     <use xlink:href="#md01db8c09d" x="69.436147" y="99.080668" style="fill: #f88296; stroke: #f88296"/>
     <use xlink:href="#md01db8c09d" x="76.476738" y="86.148339" style="fill: #f88296; stroke: #f88296"/>
     <use xlink:href="#md01db8c09d" x="83.517329" y="86.148339" style="fill: #f88296; stroke: #f88296"/>
     <use xlink:href="#md01db8c09d" x="90.55792" y="96.494202" style="fill: #f88296; stroke: #f88296"/>
     <use xlink:href="#md01db8c09d" x="97.598512" y="110.288687" style="fill: #f88296; stroke: #f88296"/>
     <use xlink:href="#md01db8c09d" x="104.639103" y="122.112531" style="fill: #f88296; stroke: #f88296"/>
     <use xlink:href="#md01db8c09d" x="111.679694" y="129.995094" style="fill: #f88296; stroke: #f88296"/>
     <use xlink:href="#md01db8c09d" x="118.720285" y="134.374295" style="fill: #f88296; stroke: #f88296"/>
     <use xlink:href="#md01db8c09d" x="125.760876" y="136.476312" style="fill: #f88296; stroke: #f88296"/>
     <use xlink:href="#md01db8c09d" x="132.801467" y="137.368076" style="fill: #f88296; stroke: #f88296"/>
     <use xlink:href="#md01db8c09d" x="139.842059" y="137.707796" style="fill: #f88296; stroke: #f88296"/>
     <use xlink:href="#md01db8c09d" x="146.88265" y="137.825392" style="fill: #f88296; stroke: #f88296"/>
     <use xlink:href="#md01db8c09d" x="153.923241" y="137.862724" style="fill: #f88296; stroke: #f88296"/>
     <use xlink:href="#md01db8c09d" x="160.963832" y="137.873674" style="fill: #f88296; stroke: #f88296"/>
     <use xlink:href="#md01db8c09d" x="168.004423" y="137.876661" style="fill: #f88296; stroke: #f88296"/>
     <use xlink:href="#md01db8c09d" x="175.045015" y="137.877422" style="fill: #f88296; stroke: #f88296"/>
     <use xlink:href="#md01db8c09d" x="182.085606" y="137.877604" style="fill: #f88296; stroke: #f88296"/>
     <use xlink:href="#md01db8c09d" x="189.126197" y="137.877645" style="fill: #f88296; stroke: #f88296"/>
     <use xlink:href="#md01db8c09d" x="196.166788" y="137.877654" style="fill: #f88296; stroke: #f88296"/>
     <use xlink:href="#md01db8c09d" x="203.207379" y="137.877656" style="fill: #f88296; stroke: #f88296"/>
    </g>
   </g>
   <g id="line2d_21">
    <path d="M 55.354964 137.865635 
L 62.395556 137.757446 
L 69.436147 137.276606 
L 76.476738 135.874154 
L 83.517329 132.8689 
L 90.55792 127.860144 
L 97.598512 121.181802 
L 104.639103 114.026436 
L 111.679694 108.063631 
L 118.720285 104.750962 
L 125.760876 104.750962 
L 132.801467 107.76248 
L 139.842059 112.781676 
L 146.88265 118.573056 
L 153.923241 124.088656 
L 160.963832 128.684989 
L 168.004423 132.132239 
L 175.045015 134.497999 
L 182.085606 136.000069 
L 189.126197 136.889452 
L 196.166788 137.383554 
L 203.207379 137.64237 
" clip-path="url(#p82caa28b91)" style="fill: none; stroke: #f43f5e; stroke-width: 1.5; stroke-linecap: square"/>
    <defs>
     <path id="m709f00d04d" d="M 0 3 
C 0.795609 3 1.55874 2.683901 2.12132 2.12132 
C 2.683901 1.55874 3 0.795609 3 0 
C 3 -0.795609 2.683901 -1.55874 2.12132 -2.12132 
C 1.55874 -2.683901 0.795609 -3 0 -3 
C -0.795609 -3 -1.55874 -2.683901 -2.12132 -2.12132 
C -2.683901 -1.55874 -3 -0.795609 -3 0 
C -3 0.795609 -2.683901 1.55874 -2.12132 2.12132 
C -1.55874 2.683901 -0.795609 3 0 3 
z
" style="stroke: #f43f5e"/>
    </defs>
    <g clip-path="url(#p82caa28b91)">
     <use xlink:href="#m709f00d04d" x="55.354964" y="137.865635" style="fill: #f43f5e; stroke: #f43f5e"/>
     <use xlink:href="#m709f00d04d" x="62.395556" y="137.757446" style="fill: #f43f5e; stroke: #f43f5e"/>
     <use xlink:href="#m709f00d04d" x="69.436147" y="137.276606" style="fill: #f43f5e; stroke: #f43f5e"/>
     <use xlink:href="#m709f00d04d" x="76.476738" y="135.874154" style="fill: #f43f5e; stroke: #f43f5e"/>
     <use xlink:href="#m709f00d04d" x="83.517329" y="132.8689" style="fill: #f43f5e; stroke: #f43f5e"/>
     <use xlink:href="#m709f00d04d" x="90.55792" y="127.860144" style="fill: #f43f5e; stroke: #f43f5e"/>
     <use xlink:href="#m709f00d04d" x="97.598512" y="121.181802" style="fill: #f43f5e; stroke: #f43f5e"/>
     <use xlink:href="#m709f00d04d" x="104.639103" y="114.026436" style="fill: #f43f5e; stroke: #f43f5e"/>
     <use xlink:href="#m709f00d04d" x="111.679694" y="108.063631" style="fill: #f43f5e; stroke: #f43f5e"/>
     <use xlink:href="#m709f00d04d" x="118.720285" y="104.750962" style="fill: #f43f5e; stroke: #f43f5e"/>
     <use xlink:href="#m709f00d04d" x="125.760876" y="104.750962" style="fill: #f43f5e; stroke: #f43f5e"/>
     <use xlink:href="#m709f00d04d" x="132.801467" y="107.76248" style="fill: #f43f5e; stroke: #f43f5e"/>
     <use xlink:href="#m709f00d04d" x="139.842059" y="112.781676" style="fill: #f43f5e; stroke: #f43f5e"/>
     <use xlink:href="#m709f00d04d" x="146.88265" y="118.573056" style="fill: #f43f5e; stroke: #f43f5e"/>
     <use xlink:href="#m709f00d04d" x="153.923241" y="124.088656" style="fill: #f43f5e; stroke: #f43f5e"/>
     <use xlink:href="#m709f00d04d" x="160.963832" y="128.684989" style="fill: #f43f5e; stroke: #f43f5e"/>
     <use xlink:href="#m709f00d04d" x="168.004423" y="132.132239" style="fill: #f43f5e; stroke: #f43f5e"/>
     <use xlink:href="#m709f00d04d" x="175.045015" y="134.497999" style="fill: #f43f5e; stroke: #f43f5e"/>
     <use xlink:href="#m709f00d04d" x="182.085606" y="136.000069" style="fill: #f43f5e; stroke: #f43f5e"/>
     <use xlink:href="#m709f00d04d" x="189.126197" y="136.889452" style="fill: #f43f5e; stroke: #f43f5e"/>
     <use xlink:href="#m709f00d04d" x="196.166788" y="137.383554" style="fill: #f43f5e; stroke: #f43f5e"/>
     <use xlink:href="#m709f00d04d" x="203.207379" y="137.64237" style="fill: #f43f5e; stroke: #f43f5e"/>
    </g>
   </g>
   <g id="patch_3">
    <path d="M 47.962344 137.877656 
L 47.962344 35.6 
" style="fill: none; stroke: #000000; stroke-width: 0.8; stroke-linejoin: miter; stroke-linecap: square"/>
   </g>
   <g id="patch_4">
    <path d="M 210.6 137.877656 
L 210.6 35.6 
" style="fill: none; stroke: #000000; stroke-width: 0.8; stroke-linejoin: miter; stroke-linecap: square"/>
   </g>
   <g id="patch_5">
    <path d="M 47.962344 137.877656 
L 210.6 137.877656 
" style="fill: none; stroke: #000000; stroke-width: 0.8; stroke-linejoin: miter; stroke-linecap: square"/>
   </g>
   <g id="patch_6">
    <path d="M 47.962344 35.6 
L 210.6 35.6 
" style="fill: none; stroke: #000000; stroke-width: 0.8; stroke-linejoin: miter; stroke-linecap: square"/>
   </g>
   <g id="legend_1">
    <g id="patch_7">
     <path d="M 150.14875 78.001875 
L 205 78.001875 
Q 206.6 78.001875 206.6 76.401875 
L 206.6 41.2 
Q 206.6 39.6 205 39.6 
L 150.14875 39.6 
Q 148.54875 39.6 148.54875 41.2 
L 148.54875 76.401875 
Q 148.54875 78.001875 150.14875 78.001875 
z
" style="fill: #ffffff; opacity: 0.8; stroke: #cccccc; stroke-linejoin: miter"/>
    </g>
    <g id="line2d_22">
     <path d="M 151.74875 46.07875 
L 159.74875 46.07875 
L 167.74875 46.07875 
" style="fill: none; stroke: #fcc5cf; stroke-width: 1.5; stroke-linecap: square"/>
     <g>
      <use xlink:href="#md8b22e1eb4" x="159.74875" y="46.07875" style="fill: #fcc5cf; stroke: #fcc5cf"/>
     </g>
    </g>
    <g id="text_12">
     <!-- λ=1.0 -->
     <g transform="translate(174.14875 48.87875) scale(0.08 -0.08)">
      <defs>
       <path id="DejaVuSans-34f" d="M 1981 4316 
L 3597 0 
L 2988 0 
L 2006 2588 
L 800 0 
L 191 0 
L 1725 3356 
L 1494 3975 
Q 1347 4369 1013 4369 
L 713 4369 
L 713 4863 
L 1078 4856 
Q 1784 4847 1981 4316 
z
" transform="scale(0.015625)"/>
       <path id="DejaVuSans-20" d="M 678 2906 
L 4684 2906 
L 4684 2381 
L 678 2381 
L 678 2906 
z
M 678 1631 
L 4684 1631 
L 4684 1100 
L 678 1100 
L 678 1631 
z
" transform="scale(0.015625)"/>
      </defs>
      <use xlink:href="#DejaVuSans-34f"/>
      <use xlink:href="#DejaVuSans-20" transform="translate(59.1875 0)"/>
      <use xlink:href="#DejaVuSans-14" transform="translate(142.984375 0)"/>
      <use xlink:href="#DejaVuSans-11" transform="translate(206.609375 0)"/>
      <use xlink:href="#DejaVuSans-13" transform="translate(238.390625 0)"/>
     </g>
    </g>
    <g id="line2d_23">
     <path d="M 151.74875 58.079375 
L 159.74875 58.079375 
L 167.74875 58.079375 
" style="fill: none; stroke: #f88296; stroke-width: 1.5; stroke-linecap: square"/>
     <g>
      <use xlink:href="#md01db8c09d" x="159.74875" y="58.079375" style="fill: #f88296; stroke: #f88296"/>
     </g>
    </g>
    <g id="text_13">
     <!-- λ=4.0 -->
     <g transform="translate(174.14875 60.879375) scale(0.08 -0.08)">
      <defs>
       <path id="DejaVuSans-17" d="M 2419 4116 
L 825 1625 
L 2419 1625 
L 2419 4116 
z
M 2253 4666 
L 3047 4666 
L 3047 1625 
L 3713 1625 
L 3713 1100 
L 3047 1100 
L 3047 0 
L 2419 0 
L 2419 1100 
L 313 1100 
L 313 1709 
L 2253 4666 
z
" transform="scale(0.015625)"/>
      </defs>
      <use xlink:href="#DejaVuSans-34f"/>
      <use xlink:href="#DejaVuSans-20" transform="translate(59.1875 0)"/>
      <use xlink:href="#DejaVuSans-17" transform="translate(142.984375 0)"/>
      <use xlink:href="#DejaVuSans-11" transform="translate(206.609375 0)"/>
      <use xlink:href="#DejaVuSans-13" transform="translate(238.390625 0)"/>
     </g>
    </g>
    <g id="line2d_24">
     <path d="M 151.74875 70.08 
L 159.74875 70.08 
L 167.74875 70.08 
" style="fill: none; stroke: #f43f5e; stroke-width: 1.5; stroke-linecap: square"/>
     <g>
      <use xlink:href="#m709f00d04d" x="159.74875" y="70.08" style="fill: #f43f5e; stroke: #f43f5e"/>
     </g>
    </g>
    <g id="text_14">
     <!-- λ=10.0 -->
     <g transform="translate(174.14875 72.88) scale(0.08 -0.08)">
      <use xlink:href="#DejaVuSans-34f"/>
      <use xlink:href="#DejaVuSans-20" transform="translate(59.1875 0)"/>
      <use xlink:href="#DejaVuSans-14" transform="translate(142.984375 0)"/>
      <use xlink:href="#DejaVuSans-13" transform="translate(206.609375 0)"/>
      <use xlink:href="#DejaVuSans-11" transform="translate(270.234375 0)"/>
      <use xlink:href="#DejaVuSans-13" transform="translate(302.015625 0)"/>
     </g>
    </g>
   </g>
  </g>
  <g id="axes_2">
   <g id="patch_8">
    <path d="M 258.562344 137.877656 
L 421.2 137.877656 
L 421.2 35.6 
L 258.562344 35.6 
z
" style="fill: #ffffff"/>
   </g>
   <g id="matplotlib.axis_3">
    <g id="xtick_6">
     <g id="line2d_25">
      <path d="M 265.954964 137.877656 
L 265.954964 35.6 
" clip-path="url(#p98cc55f9dd)" style="fill: none; stroke: #b0b0b0; stroke-opacity: 0.3; stroke-width: 0.8; stroke-linecap: square"/>
     </g>
     <g id="line2d_26">
      <g>
       <use xlink:href="#m41a69ff684" x="265.954964" y="137.877656" style="stroke: #000000; stroke-width: 0.8"/>
      </g>
     </g>
     <g id="text_15">
      <!-- 0 -->
      <g transform="translate(262.773714 152.475313) scale(0.1 -0.1)">
       <use xlink:href="#DejaVuSans-13"/>
      </g>
     </g>
    </g>
    <g id="xtick_7">
     <g id="line2d_27">
      <path d="M 301.15792 137.877656 
L 301.15792 35.6 
" clip-path="url(#p98cc55f9dd)" style="fill: none; stroke: #b0b0b0; stroke-opacity: 0.3; stroke-width: 0.8; stroke-linecap: square"/>
     </g>
     <g id="line2d_28">
      <g>
       <use xlink:href="#m41a69ff684" x="301.15792" y="137.877656" style="stroke: #000000; stroke-width: 0.8"/>
      </g>
     </g>
     <g id="text_16">
      <!-- 5 -->
      <g transform="translate(297.97667 152.475313) scale(0.1 -0.1)">
       <use xlink:href="#DejaVuSans-18"/>
      </g>
     </g>
    </g>
    <g id="xtick_8">
     <g id="line2d_29">
      <path d="M 336.360876 137.877656 
L 336.360876 35.6 
" clip-path="url(#p98cc55f9dd)" style="fill: none; stroke: #b0b0b0; stroke-opacity: 0.3; stroke-width: 0.8; stroke-linecap: square"/>
     </g>
     <g id="line2d_30">
      <g>
       <use xlink:href="#m41a69ff684" x="336.360876" y="137.877656" style="stroke: #000000; stroke-width: 0.8"/>
      </g>
     </g>
     <g id="text_17">
      <!-- 10 -->
      <g transform="translate(329.998376 152.475313) scale(0.1 -0.1)">
       <use xlink:href="#DejaVuSans-14"/>
       <use xlink:href="#DejaVuSans-13" transform="translate(63.625 0)"/>
      </g>
     </g>
    </g>
    <g id="xtick_9">
     <g id="line2d_31">
      <path d="M 371.563832 137.877656 
L 371.563832 35.6 
" clip-path="url(#p98cc55f9dd)" style="fill: none; stroke: #b0b0b0; stroke-opacity: 0.3; stroke-width: 0.8; stroke-linecap: square"/>
     </g>
     <g id="line2d_32">
      <g>
       <use xlink:href="#m41a69ff684" x="371.563832" y="137.877656" style="stroke: #000000; stroke-width: 0.8"/>
      </g>
     </g>
     <g id="text_18">
      <!-- 15 -->
      <g transform="translate(365.201332 152.475313) scale(0.1 -0.1)">
       <use xlink:href="#DejaVuSans-14"/>
       <use xlink:href="#DejaVuSans-18" transform="translate(63.625 0)"/>
      </g>
     </g>
    </g>
    <g id="xtick_10">
     <g id="line2d_33">
      <path d="M 406.766788 137.877656 
L 406.766788 35.6 
" clip-path="url(#p98cc55f9dd)" style="fill: none; stroke: #b0b0b0; stroke-opacity: 0.3; stroke-width: 0.8; stroke-linecap: square"/>
     </g>
     <g id="line2d_34">
      <g>
       <use xlink:href="#m41a69ff684" x="406.766788" y="137.877656" style="stroke: #000000; stroke-width: 0.8"/>
      </g>
     </g>
     <g id="text_19">
      <!-- 20 -->
      <g transform="translate(400.404288 152.475313) scale(0.1 -0.1)">
       <use xlink:href="#DejaVuSans-15"/>
       <use xlink:href="#DejaVuSans-13" transform="translate(63.625 0)"/>
      </g>
     </g>
    </g>
    <g id="text_20">
     <!-- Value -->
     <g transform="translate(326.150703 166.476094) scale(0.1 -0.1)">
      <use xlink:href="#DejaVuSans-39"/>
      <use xlink:href="#DejaVuSans-44" transform="translate(60.640625 0)"/>
      <use xlink:href="#DejaVuSans-4f" transform="translate(121.921875 0)"/>
      <use xlink:href="#DejaVuSans-58" transform="translate(149.703125 0)"/>
      <use xlink:href="#DejaVuSans-48" transform="translate(213.078125 0)"/>
     </g>
    </g>
   </g>
   <g id="matplotlib.axis_4">
    <g id="ytick_5">
     <g id="line2d_35">
      <path d="M 258.562344 137.877656 
L 421.2 137.877656 
" clip-path="url(#p98cc55f9dd)" style="fill: none; stroke: #b0b0b0; stroke-opacity: 0.3; stroke-width: 0.8; stroke-linecap: square"/>
     </g>
     <g id="line2d_36">
      <g>
       <use xlink:href="#m93d38c2b26" x="258.562344" y="137.877656" style="stroke: #000000; stroke-width: 0.8"/>
      </g>
     </g>
     <g id="text_21">
      <!-- 0.00 -->
      <g transform="translate(229.296719 141.676484) scale(0.1 -0.1)">
       <use xlink:href="#DejaVuSans-13"/>
       <use xlink:href="#DejaVuSans-11" transform="translate(63.625 0)"/>
       <use xlink:href="#DejaVuSans-13" transform="translate(95.40625 0)"/>
       <use xlink:href="#DejaVuSans-13" transform="translate(159.03125 0)"/>
      </g>
     </g>
    </g>
    <g id="ytick_6">
     <g id="line2d_37">
      <path d="M 258.562344 113.525781 
L 421.2 113.525781 
" clip-path="url(#p98cc55f9dd)" style="fill: none; stroke: #b0b0b0; stroke-opacity: 0.3; stroke-width: 0.8; stroke-linecap: square"/>
     </g>
     <g id="line2d_38">
      <g>
       <use xlink:href="#m93d38c2b26" x="258.562344" y="113.525781" style="stroke: #000000; stroke-width: 0.8"/>
      </g>
     </g>
     <g id="text_22">
      <!-- 0.25 -->
      <g transform="translate(229.296719 117.324609) scale(0.1 -0.1)">
       <use xlink:href="#DejaVuSans-13"/>
       <use xlink:href="#DejaVuSans-11" transform="translate(63.625 0)"/>
       <use xlink:href="#DejaVuSans-15" transform="translate(95.40625 0)"/>
       <use xlink:href="#DejaVuSans-18" transform="translate(159.03125 0)"/>
      </g>
     </g>
    </g>
    <g id="ytick_7">
     <g id="line2d_39">
      <path d="M 258.562344 89.173905 
L 421.2 89.173905 
" clip-path="url(#p98cc55f9dd)" style="fill: none; stroke: #b0b0b0; stroke-opacity: 0.3; stroke-width: 0.8; stroke-linecap: square"/>
     </g>
     <g id="line2d_40">
      <g>
       <use xlink:href="#m93d38c2b26" x="258.562344" y="89.173905" style="stroke: #000000; stroke-width: 0.8"/>
      </g>
     </g>
     <g id="text_23">
      <!-- 0.50 -->
      <g transform="translate(229.296719 92.972733) scale(0.1 -0.1)">
       <use xlink:href="#DejaVuSans-13"/>
       <use xlink:href="#DejaVuSans-11" transform="translate(63.625 0)"/>
       <use xlink:href="#DejaVuSans-18" transform="translate(95.40625 0)"/>
       <use xlink:href="#DejaVuSans-13" transform="translate(159.03125 0)"/>
      </g>
     </g>
    </g>
    <g id="ytick_8">
     <g id="line2d_41">
      <path d="M 258.562344 64.82203 
L 421.2 64.82203 
" clip-path="url(#p98cc55f9dd)" style="fill: none; stroke: #b0b0b0; stroke-opacity: 0.3; stroke-width: 0.8; stroke-linecap: square"/>
     </g>
     <g id="line2d_42">
      <g>
       <use xlink:href="#m93d38c2b26" x="258.562344" y="64.82203" style="stroke: #000000; stroke-width: 0.8"/>
      </g>
     </g>
     <g id="text_24">
      <!-- 0.75 -->
      <g transform="translate(229.296719 68.620858) scale(0.1 -0.1)">
       <defs>
        <path id="DejaVuSans-1a" d="M 525 4666 
L 3525 4666 
L 3525 4397 
L 1831 0 
L 1172 0 
L 2766 4134 
L 525 4134 
L 525 4666 
z
" transform="scale(0.015625)"/>
       </defs>
       <use xlink:href="#DejaVuSans-13"/>
       <use xlink:href="#DejaVuSans-11" transform="translate(63.625 0)"/>
       <use xlink:href="#DejaVuSans-1a" transform="translate(95.40625 0)"/>
       <use xlink:href="#DejaVuSans-18" transform="translate(159.03125 0)"/>
      </g>
     </g>
    </g>
    <g id="ytick_9">
     <g id="line2d_43">
      <path d="M 258.562344 40.470154 
L 421.2 40.470154 
" clip-path="url(#p98cc55f9dd)" style="fill: none; stroke: #b0b0b0; stroke-opacity: 0.3; stroke-width: 0.8; stroke-linecap: square"/>
     </g>
     <g id="line2d_44">
      <g>
       <use xlink:href="#m93d38c2b26" x="258.562344" y="40.470154" style="stroke: #000000; stroke-width: 0.8"/>
      </g>
     </g>
     <g id="text_25">
      <!-- 1.00 -->
      <g transform="translate(229.296719 44.268982) scale(0.1 -0.1)">
       <use xlink:href="#DejaVuSans-14"/>
       <use xlink:href="#DejaVuSans-11" transform="translate(63.625 0)"/>
       <use xlink:href="#DejaVuSans-13" transform="translate(95.40625 0)"/>
       <use xlink:href="#DejaVuSans-13" transform="translate(159.03125 0)"/>
      </g>
     </g>
    </g>
    <g id="text_26">
     <!-- Cumulative Prob (CDF) -->
     <g transform="translate(222.894375 143.679453) rotate(-90) scale(0.1 -0.1)">
      <defs>
       <path id="DejaVuSans-26" d="M 4122 4306 
L 4122 3641 
Q 3803 3938 3442 4084 
Q 3081 4231 2675 4231 
Q 1875 4231 1450 3742 
Q 1025 3253 1025 2328 
Q 1025 1406 1450 917 
Q 1875 428 2675 428 
Q 3081 428 3442 575 
Q 3803 722 4122 1019 
L 4122 359 
Q 3791 134 3420 21 
Q 3050 -91 2638 -91 
Q 1578 -91 968 557 
Q 359 1206 359 2328 
Q 359 3453 968 4101 
Q 1578 4750 2638 4750 
Q 3056 4750 3426 4639 
Q 3797 4528 4122 4306 
z
" transform="scale(0.015625)"/>
       <path id="DejaVuSans-50" d="M 3328 2828 
Q 3544 3216 3844 3400 
Q 4144 3584 4550 3584 
Q 5097 3584 5394 3201 
Q 5691 2819 5691 2113 
L 5691 0 
L 5113 0 
L 5113 2094 
Q 5113 2597 4934 2840 
Q 4756 3084 4391 3084 
Q 3944 3084 3684 2787 
Q 3425 2491 3425 1978 
L 3425 0 
L 2847 0 
L 2847 2094 
Q 2847 2600 2669 2842 
Q 2491 3084 2119 3084 
Q 1678 3084 1418 2786 
Q 1159 2488 1159 1978 
L 1159 0 
L 581 0 
L 581 3500 
L 1159 3500 
L 1159 2956 
Q 1356 3278 1631 3431 
Q 1906 3584 2284 3584 
Q 2666 3584 2933 3390 
Q 3200 3197 3328 2828 
z
" transform="scale(0.015625)"/>
       <path id="DejaVuSans-59" d="M 191 3500 
L 800 3500 
L 1894 563 
L 2988 3500 
L 3597 3500 
L 2284 0 
L 1503 0 
L 191 3500 
z
" transform="scale(0.015625)"/>
       <path id="DejaVuSans-27" d="M 1259 4147 
L 1259 519 
L 2022 519 
Q 2988 519 3436 956 
Q 3884 1394 3884 2338 
Q 3884 3275 3436 3711 
Q 2988 4147 2022 4147 
L 1259 4147 
z
M 628 4666 
L 1925 4666 
Q 3281 4666 3915 4102 
Q 4550 3538 4550 2338 
Q 4550 1131 3912 565 
Q 3275 0 1925 0 
L 628 0 
L 628 4666 
z
" transform="scale(0.015625)"/>
      </defs>
      <use xlink:href="#DejaVuSans-26"/>
      <use xlink:href="#DejaVuSans-58" transform="translate(69.828125 0)"/>
      <use xlink:href="#DejaVuSans-50" transform="translate(133.203125 0)"/>
      <use xlink:href="#DejaVuSans-58" transform="translate(230.609375 0)"/>
      <use xlink:href="#DejaVuSans-4f" transform="translate(293.984375 0)"/>
      <use xlink:href="#DejaVuSans-44" transform="translate(321.765625 0)"/>
      <use xlink:href="#DejaVuSans-57" transform="translate(383.046875 0)"/>
      <use xlink:href="#DejaVuSans-4c" transform="translate(422.25 0)"/>
      <use xlink:href="#DejaVuSans-59" transform="translate(450.03125 0)"/>
      <use xlink:href="#DejaVuSans-48" transform="translate(509.21875 0)"/>
      <use xlink:href="#DejaVuSans-3" transform="translate(570.75 0)"/>
      <use xlink:href="#DejaVuSans-33" transform="translate(602.53125 0)"/>
      <use xlink:href="#DejaVuSans-55" transform="translate(661.078125 0)"/>
      <use xlink:href="#DejaVuSans-52" transform="translate(699.984375 0)"/>
      <use xlink:href="#DejaVuSans-45" transform="translate(761.171875 0)"/>
      <use xlink:href="#DejaVuSans-3" transform="translate(824.65625 0)"/>
      <use xlink:href="#DejaVuSans-b" transform="translate(856.4375 0)"/>
      <use xlink:href="#DejaVuSans-26" transform="translate(895.453125 0)"/>
      <use xlink:href="#DejaVuSans-27" transform="translate(965.28125 0)"/>
      <use xlink:href="#DejaVuSans-29" transform="translate(1042.28125 0)"/>
      <use xlink:href="#DejaVuSans-c" transform="translate(1099.796875 0)"/>
     </g>
    </g>
   </g>
   <g id="line2d_45">
    <path d="M 265.954964 102.043439 
L 272.995556 102.043439 
L 272.995556 66.209221 
L 280.036147 66.209221 
L 280.036147 48.292113 
L 287.076738 48.292113 
L 287.076738 42.319743 
L 294.117329 42.319743 
L 294.117329 40.826651 
L 301.15792 40.826651 
L 301.15792 40.528032 
L 308.198512 40.528032 
L 308.198512 40.478262 
L 315.239103 40.478262 
L 315.239103 40.471152 
L 322.279694 40.471152 
L 322.279694 40.470264 
L 329.320285 40.470264 
L 329.320285 40.470165 
L 336.360876 40.470165 
L 336.360876 40.470155 
L 343.401467 40.470155 
L 343.401467 40.470154 
L 350.442059 40.470154 
L 350.442059 40.470154 
L 357.48265 40.470154 
L 357.48265 40.470154 
L 364.523241 40.470154 
L 364.523241 40.470154 
L 371.563832 40.470154 
L 371.563832 40.470154 
L 378.604423 40.470154 
L 378.604423 40.470154 
L 385.645015 40.470154 
L 385.645015 40.470154 
L 392.685606 40.470154 
L 392.685606 40.470154 
L 399.726197 40.470154 
L 399.726197 40.470154 
L 406.766788 40.470154 
L 406.766788 40.470154 
L 413.807379 40.470154 
L 413.807379 40.470154 
" clip-path="url(#p98cc55f9dd)" style="fill: none; stroke: #b7e4f8; stroke-width: 2; stroke-linecap: square"/>
   </g>
   <g id="line2d_46">
    <path d="M 265.954964 136.093576 
L 272.995556 136.093576 
L 272.995556 128.957253 
L 280.036147 128.957253 
L 280.036147 114.684608 
L 287.076738 114.684608 
L 287.076738 95.654415 
L 294.117329 95.654415 
L 294.117329 76.624221 
L 301.15792 76.624221 
L 301.15792 61.400066 
L 308.198512 61.400066 
L 308.198512 51.25063 
L 315.239103 51.25063 
L 315.239103 45.450952 
L 322.279694 45.450952 
L 322.279694 42.551113 
L 329.320285 42.551113 
L 329.320285 41.262295 
L 336.360876 41.262295 
L 336.360876 40.746769 
L 343.401467 40.746769 
L 343.401467 40.559304 
L 350.442059 40.559304 
L 350.442059 40.496816 
L 357.48265 40.496816 
L 357.48265 40.477589 
L 364.523241 40.477589 
L 364.523241 40.472095 
L 371.563832 40.472095 
L 371.563832 40.470631 
L 378.604423 40.470631 
L 378.604423 40.470264 
L 385.645015 40.470264 
L 385.645015 40.470178 
L 392.685606 40.470178 
L 392.685606 40.470159 
L 399.726197 40.470159 
L 399.726197 40.470155 
L 406.766788 40.470155 
L 406.766788 40.470154 
L 413.807379 40.470154 
L 413.807379 40.470154 
" clip-path="url(#p98cc55f9dd)" style="fill: none; stroke: #62c4f1; stroke-width: 2; stroke-linecap: square"/>
   </g>
   <g id="line2d_47">
    <path d="M 265.954964 137.873234 
L 272.995556 137.873234 
L 272.995556 137.829011 
L 280.036147 137.829011 
L 280.036147 137.607896 
L 287.076738 137.607896 
L 287.076738 136.870847 
L 294.117329 136.870847 
L 294.117329 135.028225 
L 301.15792 135.028225 
L 301.15792 131.34298 
L 308.198512 131.34298 
L 308.198512 125.200906 
L 315.239103 125.200906 
L 315.239103 116.426513 
L 322.279694 116.426513 
L 322.279694 105.458523 
L 329.320285 105.458523 
L 329.320285 93.271867 
L 336.360876 93.271867 
L 336.360876 81.08521 
L 343.401467 81.08521 
L 343.401467 70.006432 
L 350.442059 70.006432 
L 350.442059 60.774117 
L 357.48265 60.774117 
L 357.48265 53.672336 
L 364.523241 53.672336 
L 364.523241 48.599635 
L 371.563832 48.599635 
L 371.563832 45.217835 
L 378.604423 45.217835 
L 378.604423 43.10421 
L 385.645015 43.10421 
L 385.645015 41.860901 
L 392.685606 41.860901 
L 392.685606 41.170173 
L 399.726197 41.170173 
L 399.726197 40.806633 
L 406.766788 40.806633 
L 406.766788 40.624863 
L 413.807379 40.624863 
L 413.807379 40.538305 
" clip-path="url(#p98cc55f9dd)" style="fill: none; stroke: #0ea5e9; stroke-width: 2; stroke-linecap: square"/>
   </g>
   <g id="patch_9">
    <path d="M 258.562344 137.877656 
L 258.562344 35.6 
" style="fill: none; stroke: #000000; stroke-width: 0.8; stroke-linejoin: miter; stroke-linecap: square"/>
   </g>
   <g id="patch_10">
    <path d="M 421.2 137.877656 
L 421.2 35.6 
" style="fill: none; stroke: #000000; stroke-width: 0.8; stroke-linejoin: miter; stroke-linecap: square"/>
   </g>
   <g id="patch_11">
    <path d="M 258.562344 137.877656 
L 421.2 137.877656 
" style="fill: none; stroke: #000000; stroke-width: 0.8; stroke-linejoin: miter; stroke-linecap: square"/>
   </g>
   <g id="patch_12">
    <path d="M 258.562344 35.6 
L 421.2 35.6 
" style="fill: none; stroke: #000000; stroke-width: 0.8; stroke-linejoin: miter; stroke-linecap: square"/>
   </g>
  </g>
  <g id="text_27">
   <!-- Poisson Distribution (sweeping λ) -->
   <g transform="translate(99.418281 14.237812) scale(0.14 -0.14)">
    <defs>
     <path id="DejaVuSans-56" d="M 2834 3397 
L 2834 2853 
Q 2591 2978 2328 3040 
Q 2066 3103 1784 3103 
Q 1356 3103 1142 2972 
Q 928 2841 928 2578 
Q 928 2378 1081 2264 
Q 1234 2150 1697 2047 
L 1894 2003 
Q 2506 1872 2764 1633 
Q 3022 1394 3022 966 
Q 3022 478 2636 193 
Q 2250 -91 1575 -91 
Q 1294 -91 989 -36 
Q 684 19 347 128 
L 347 722 
Q 666 556 975 473 
Q 1284 391 1588 391 
Q 1994 391 2212 530 
Q 2431 669 2431 922 
Q 2431 1156 2273 1281 
Q 2116 1406 1581 1522 
L 1381 1569 
Q 847 1681 609 1914 
Q 372 2147 372 2553 
Q 372 3047 722 3315 
Q 1072 3584 1716 3584 
Q 2034 3584 2315 3537 
Q 2597 3491 2834 3397 
z
" transform="scale(0.015625)"/>
     <path id="DejaVuSans-51" d="M 3513 2113 
L 3513 0 
L 2938 0 
L 2938 2094 
Q 2938 2591 2744 2837 
Q 2550 3084 2163 3084 
Q 1697 3084 1428 2787 
Q 1159 2491 1159 1978 
L 1159 0 
L 581 0 
L 581 3500 
L 1159 3500 
L 1159 2956 
Q 1366 3272 1645 3428 
Q 1925 3584 2291 3584 
Q 2894 3584 3203 3211 
Q 3513 2838 3513 2113 
z
" transform="scale(0.015625)"/>
     <path id="DejaVuSans-5a" d="M 269 3500 
L 844 3500 
L 1563 769 
L 2278 3500 
L 2956 3500 
L 3675 769 
L 4391 3500 
L 4966 3500 
L 4050 0 
L 3372 0 
L 2619 2869 
L 1863 0 
L 1184 0 
L 269 3500 
z
" transform="scale(0.015625)"/>
     <path id="DejaVuSans-53" d="M 1159 525 
L 1159 -1331 
L 581 -1331 
L 581 3500 
L 1159 3500 
L 1159 2969 
Q 1341 3281 1617 3432 
Q 1894 3584 2278 3584 
Q 2916 3584 3314 3078 
Q 3713 2572 3713 1747 
Q 3713 922 3314 415 
Q 2916 -91 2278 -91 
Q 1894 -91 1617 61 
Q 1341 213 1159 525 
z
M 3116 1747 
Q 3116 2381 2855 2742 
Q 2594 3103 2138 3103 
Q 1681 3103 1420 2742 
Q 1159 2381 1159 1747 
Q 1159 1113 1420 752 
Q 1681 391 2138 391 
Q 2594 391 2855 752 
Q 3116 1113 3116 1747 
z
" transform="scale(0.015625)"/>
     <path id="DejaVuSans-4a" d="M 2906 1791 
Q 2906 2416 2648 2759 
Q 2391 3103 1925 3103 
Q 1463 3103 1205 2759 
Q 947 2416 947 1791 
Q 947 1169 1205 825 
Q 1463 481 1925 481 
Q 2391 481 2648 825 
Q 2906 1169 2906 1791 
z
M 3481 434 
Q 3481 -459 3084 -895 
Q 2688 -1331 1869 -1331 
Q 1566 -1331 1297 -1286 
Q 1028 -1241 775 -1147 
L 775 -588 
Q 1028 -725 1275 -790 
Q 1522 -856 1778 -856 
Q 2344 -856 2625 -561 
Q 2906 -266 2906 331 
L 2906 616 
Q 2728 306 2450 153 
Q 2172 0 1784 0 
Q 1141 0 747 490 
Q 353 981 353 1791 
Q 353 2603 747 3093 
Q 1141 3584 1784 3584 
Q 2172 3584 2450 3431 
Q 2728 3278 2906 2969 
L 2906 3500 
L 3481 3500 
L 3481 434 
z
" transform="scale(0.015625)"/>
    </defs>
    <use xlink:href="#DejaVuSans-33"/>
    <use xlink:href="#DejaVuSans-52" transform="translate(56.734375 0)"/>
    <use xlink:href="#DejaVuSans-4c" transform="translate(117.921875 0)"/>
    <use xlink:href="#DejaVuSans-56" transform="translate(145.703125 0)"/>
    <use xlink:href="#DejaVuSans-56" transform="translate(197.796875 0)"/>
    <use xlink:href="#DejaVuSans-52" transform="translate(249.890625 0)"/>
    <use xlink:href="#DejaVuSans-51" transform="translate(311.078125 0)"/>
    <use xlink:href="#DejaVuSans-3" transform="translate(374.453125 0)"/>
    <use xlink:href="#DejaVuSans-27" transform="translate(406.234375 0)"/>
    <use xlink:href="#DejaVuSans-4c" transform="translate(483.234375 0)"/>
    <use xlink:href="#DejaVuSans-56" transform="translate(511.015625 0)"/>
    <use xlink:href="#DejaVuSans-57" transform="translate(563.109375 0)"/>
    <use xlink:href="#DejaVuSans-55" transform="translate(602.3125 0)"/>
    <use xlink:href="#DejaVuSans-4c" transform="translate(643.421875 0)"/>
    <use xlink:href="#DejaVuSans-45" transform="translate(671.203125 0)"/>
    <use xlink:href="#DejaVuSans-58" transform="translate(734.6875 0)"/>
    <use xlink:href="#DejaVuSans-57" transform="translate(798.0625 0)"/>
    <use xlink:href="#DejaVuSans-4c" transform="translate(837.265625 0)"/>
    <use xlink:href="#DejaVuSans-52" transform="translate(865.046875 0)"/>
    <use xlink:href="#DejaVuSans-51" transform="translate(926.234375 0)"/>
    <use xlink:href="#DejaVuSans-3" transform="translate(989.609375 0)"/>
    <use xlink:href="#DejaVuSans-b" transform="translate(1021.390625 0)"/>
    <use xlink:href="#DejaVuSans-56" transform="translate(1060.40625 0)"/>
    <use xlink:href="#DejaVuSans-5a" transform="translate(1112.5 0)"/>
    <use xlink:href="#DejaVuSans-48" transform="translate(1194.28125 0)"/>
    <use xlink:href="#DejaVuSans-48" transform="translate(1255.8125 0)"/>
    <use xlink:href="#DejaVuSans-53" transform="translate(1317.34375 0)"/>
    <use xlink:href="#DejaVuSans-4c" transform="translate(1380.828125 0)"/>
    <use xlink:href="#DejaVuSans-51" transform="translate(1408.609375 0)"/>
    <use xlink:href="#DejaVuSans-4a" transform="translate(1471.984375 0)"/>
    <use xlink:href="#DejaVuSans-3" transform="translate(1535.46875 0)"/>
    <use xlink:href="#DejaVuSans-34f" transform="translate(1567.25 0)"/>
    <use xlink:href="#DejaVuSans-c" transform="translate(1626.4375 0)"/>
   </g>
  </g>
 </g>
 <defs>
  <clipPath id="p82caa28b91">
   <rect x="47.962344" y="35.6" width="162.637656" height="102.277656"/>
  </clipPath>
  <clipPath id="p98cc55f9dd">
   <rect x="258.562344" y="35.6" width="162.637656" height="102.277656"/>
  </clipPath>
 </defs>
</svg>
